<?xml version="1.0" encoding="UTF-8"?>
<!DOCTYPE svg PUBLIC "-//W3C//DTD SVG 1.1//EN" "http://www.w3.org/Graphics/SVG/1.1/DTD/svg11.dtd">
<svg version="1.1" xmlns="http://www.w3.org/2000/svg" xmlns:xlink="http://www.w3.org/1999/xlink" x="0" y="0" width="766" height="1089" viewBox="0, 0, 766, 1089">
  <defs>
    <clipPath id="Clip_1">
      <path d="M0.06,0.12 L765.834,0.12 L765.834,1089 L0.06,1089 z"/>
    </clipPath>
  </defs>
  <g id="Layer_1">
    <g clip-path="url(#Clip_1)">
      <path d="M197.04,1078.63 C195.128,1086.86 193.015,1088.65 185.376,1088.51 C179.614,1088.4 177.577,1086.1 175.615,1077.49 C174.022,1074.51 174.672,1071.7 176.302,1068.99 C182.928,1057.98 184.341,1045.9 183.315,1033.42 C182.759,1026.64 180.02,1020.97 173.885,1017.31 C168.669,1014.2 165.577,1014.64 161.754,1019.3 C158.739,1022.98 156.766,1027.21 155.796,1031.79 C152.851,1045.72 152.18,1059.47 159.894,1072.36 C160.824,1073.91 161.726,1075.58 160.844,1077.51 C160.512,1082.44 159.24,1087.55 153.811,1088.24 C146.412,1089.17 144.165,1089.96 139.994,1081.65 C127.345,1056.46 128.856,1031.59 143.112,1007.48 C146.098,1002.44 150.476,998.213 156.017,996.07 C159.9,994.569 160.29,992.582 159.601,988.987 C155.786,969.062 152.235,949.087 148.439,929.159 C147.584,924.673 148.217,920.828 151.759,917.867 C155.334,914.878 159.314,915.043 163.494,916.737 C181.81,924.158 200.205,931.39 218.457,938.965 C221.958,940.418 222.968,939.986 223.942,936.304 C231.375,908.212 243.056,882.117 261.226,859.209 C264.527,855.048 268.185,851.17 272.025,846.763 C268.727,845.522 265.557,844.352 262.404,843.139 C192.851,816.377 145.857,767.025 117.847,698.695 C111.662,683.607 106.675,668.12 102.807,652.276 C102.323,650.292 101.993,648.558 99.169,648.513 C75.344,648.128 56.387,633.594 50.361,606.632 C46.418,588.993 46.638,571.302 51.653,553.794 C53.132,548.632 55.756,544.03 58.688,539.13 C46.05,534.958 35.042,528.426 25.543,519.419 C11.807,506.394 6.439,489.356 2.871,471.557 C-3.563,439.465 1.514,408.33 11.183,377.643 C30.284,317.02 65.103,266.63 112.296,224.718 C167.845,175.384 231.207,139.774 303.137,120.441 C343.204,109.672 384.183,107.593 425.474,111.245 C446.389,113.095 467.043,116.459 487.427,121.495 C487.855,121.601 488.352,121.43 489.109,121.362 C485.047,98.8 489.092,77.368 497.256,56.425 C513.629,14.425 551.496,-1.565 588.255,0.259 C641.506,2.902 679.524,44.533 691.759,89.067 C697.573,110.231 698.382,131.422 690.889,152.417 C683.969,171.805 671.117,186.049 652.926,195.547 C650.722,196.698 648.451,197.72 645.683,199.057 C649.082,201.978 652.296,204.681 655.447,207.457 C698.107,245.03 731.412,289.278 751.112,342.988 C762.763,374.751 768.398,407.54 764.716,441.452 C761.855,467.8 753.49,492.347 738.927,514.597 C733.114,523.48 725.728,530.852 716.199,535.87 C715.135,536.43 712.932,536.549 714.624,538.895 C726.434,555.262 726.542,574.098 725.549,593.009 C724.968,604.054 722.293,614.727 716.621,624.39 C707.644,639.684 693.911,647.459 676.478,648.385 C671.767,648.635 670.123,650.033 669.003,654.469 C658.119,697.577 640.063,737.215 611.342,771.554 C584.956,803.102 552.337,826.012 514.276,841.336 C512.893,841.893 511.501,842.428 510.12,842.992 C509.994,843.044 509.924,843.232 509.628,843.617 C511.438,846.881 514.635,849.063 517.111,851.839 C540.872,878.474 554.678,910.041 562.681,944.368 C568.97,971.349 570.78,998.627 566.229,1026.13 C565.713,1029.24 567.177,1031.97 567.756,1034.86 C570.544,1048.78 572.058,1062.81 571.794,1077.02 C571.686,1082.88 569.283,1087.27 565.426,1088.38 C559.496,1090.1 555.242,1088.28 551.641,1082.48 C547.742,1070.5 550.254,1057.81 547.486,1045.67 C546.008,1039.19 544.79,1032.67 542.417,1026.43 C541.35,1023.63 540.087,1020.94 538.197,1018.57 C535.87,1015.64 533.386,1015.06 529.982,1017.04 C523.564,1020.76 520.867,1026.65 520.36,1033.54 C519.448,1045.97 520.369,1058.12 527.352,1069.07 C528.805,1071.34 529.764,1073.88 527.955,1076.52 C527.61,1077.62 527.273,1078.72 526.92,1079.82 C524.479,1087.42 522.109,1089.04 514.278,1088.5 C509.859,1088.2 506.918,1084.84 505.635,1078.61 C502.676,1072.67 500.209,1066.54 498.842,1059.95 C478.744,1066.38 459.117,1073.74 438.67,1078.41 C434.325,1078.94 430.021,1081.78 425.611,1078.64 C422.622,1074.5 423.146,1070.69 427.104,1068.04 C428.782,1066.92 430.682,1066.28 432.6,1065.7 C450.618,1060.25 468.442,1054.2 486.436,1048.68 C488.029,1048.19 489.619,1047.36 491.26,1047.46 C496.009,1047.75 496.69,1045.09 496.464,1041.2 C496.084,1034.67 496.861,1028.23 498.663,1021.93 C499.851,1017.77 498.61,1013.62 498.27,1009.53 C496.721,990.964 494.708,972.437 493.199,953.864 C492.802,948.972 491.74,948.332 487.146,949.736 C454.336,959.769 421.528,969.807 388.721,979.852 C366.903,986.532 345.054,993.111 323.283,999.945 C318.058,1001.59 313.191,1000.6 308.224,998.615 C265.692,981.595 223.215,964.44 180.703,947.371 C178.765,946.593 176.444,944.51 174.75,945.904 C173.029,947.318 174.725,949.967 175.094,952.024 C177.39,964.812 179.678,977.601 182.055,990.374 C182.555,993.061 183.157,995.606 186.208,997.114 C186.973,995.255 186.267,993.54 185.951,991.892 C184.571,984.693 183.247,977.479 182.306,970.213 C181.415,963.324 186.117,959.238 192.723,961.296 C199.719,963.476 206.73,965.613 213.709,967.85 C217.991,969.223 220.304,971.932 221.123,976.319 C226.043,1002.68 231.196,1029 235.842,1055.41 C237.319,1063.81 233.49,1067.26 224.978,1065.83 C220.54,1065.08 216.178,1063.97 211.778,1063.04 C204.526,1061.5 204.454,1061.57 202.121,1068.44 C200.891,1072.07 199.817,1075.78 197.04,1078.63" fill="#6E4100"/>
    </g>
    <path d="M197.04,1078.63 C198.987,1073.03 200.921,1067.43 202.885,1061.84 C203.84,1059.12 205.996,1060.45 207.546,1060.74 C213.758,1061.9 219.904,1063.41 226.116,1064.56 C233.083,1065.86 235.936,1062.98 234.638,1055.99 C229.686,1029.34 224.655,1002.71 219.687,976.062 C219.054,972.668 217.52,970.38 213.945,969.347 C206.759,967.272 199.691,964.792 192.529,962.632 C186.223,960.731 182.712,963.703 183.724,970.194 C185.259,980.039 187.035,989.847 188.792,1000.16 C183.918,998.357 181.347,995.864 180.527,990.464 C178.232,975.347 175.105,960.356 172.317,945.314 C172.172,944.535 172.122,943.738 171.958,942.369 C188.138,948.872 203.827,955.18 219.518,961.486 C250.227,973.828 280.953,986.13 311.629,998.555 C316.018,1000.33 320.066,999.483 324.26,998.198 C378.629,981.536 433.006,964.895 487.38,948.247 C493.849,946.266 493.941,946.253 494.565,952.83 C496.623,974.532 498.593,996.243 500.634,1017.95 C500.912,1020.9 499.467,1023.44 498.948,1026.19 C497.705,1032.78 497.567,1039.43 497.905,1046.1 C498.021,1048.38 498.038,1050.21 494.77,1048.75 C492.497,1047.73 490.186,1048.88 487.979,1049.58 C469.282,1055.52 450.592,1061.48 431.902,1067.44 C424.594,1069.77 423.697,1071.38 425.611,1078.64 C406.639,1078.56 387.668,1078.49 368.697,1078.42 C369.288,1075.73 371.769,1075.61 373.692,1075.02 C402.311,1066.15 430.874,1057.12 459.471,1048.19 C469.321,1045.11 479.224,1042.2 488.991,1038.86 C489.936,1038.53 490.891,1038.23 491.778,1037.76 C494.038,1036.58 495.639,1034.88 494.814,1032.18 C493.903,1029.19 491.46,1028.8 488.75,1029.27 C487.763,1029.44 486.815,1029.76 485.862,1030.06 C445.371,1042.78 404.84,1055.37 364.337,1068.06 C359.022,1069.72 358.562,1070.66 358.967,1078.39 C346.298,1078.46 333.629,1078.53 320.961,1078.6 C318.791,1077.06 318.769,1074.62 318.394,1072.35 C315.894,1057.26 313.105,1042.22 310.631,1027.12 C310.416,1025.8 310.281,1024.47 309.859,1023.2 C309.013,1020.67 307.678,1018.45 304.583,1019.01 C301.621,1019.55 300.7,1021.85 300.909,1024.65 C301.044,1026.48 301.365,1028.28 301.673,1030.09 C304.051,1044.02 306.608,1057.92 308.784,1071.89 C309.176,1074.41 310.476,1077.04 308.658,1079.56 C307.443,1079.25 306.228,1078.93 305.013,1078.61 C302.742,1077.42 302.681,1075.13 302.326,1073.04 C299.388,1055.67 296.211,1038.34 293.284,1020.96 C292.844,1018.35 292.629,1015.65 291.224,1013.31 C290.214,1011.63 288.757,1010.56 286.674,1011 C284.602,1011.43 283.696,1012.93 283.436,1014.92 C283.173,1016.93 283.509,1018.9 283.838,1020.87 C286.659,1037.75 289.803,1054.58 292.554,1071.48 C292.946,1073.88 293.855,1076.4 291.776,1078.56 C288.485,1078.02 289.357,1081.26 288.117,1082.59 C286.564,1081.7 286.642,1080.11 286.414,1078.65 C282.863,1055.93 279.074,1033.26 275.035,1010.62 C274.713,1008.82 274.476,1006.98 273.64,1005.32 C272.733,1003.52 271.233,1002.5 269.201,1002.72 C267.086,1002.94 266.111,1004.49 265.656,1006.41 C265.181,1008.41 265.594,1010.39 265.95,1012.35 C269.482,1031.86 272.569,1051.45 275.829,1071.01 C276.244,1073.5 277.603,1076.17 275.562,1078.63 C274.689,1078.61 273.817,1078.6 272.944,1078.59 C270.944,1076.94 270.884,1074.48 270.452,1072.24 C266.293,1050.68 262.411,1029.06 258.392,1007.47 C257.936,1005.01 257.56,1002.54 256.942,1000.12 C256.167,997.088 255.023,993.908 251.148,994.656 C247.264,995.405 247.333,998.726 247.875,1001.86 C249.436,1010.88 251.233,1019.85 252.887,1028.85 C255.565,1043.42 258.234,1057.99 260.946,1072.54 C261.317,1074.54 262.515,1076.74 260.532,1078.63 C239.368,1078.63 218.204,1078.63 197.04,1078.63" fill="#BEBEBE"/>
    <path d="M358.967,1078.39 C355.545,1071.95 356.684,1069 363.513,1066.87 C404.457,1054.08 445.406,1041.31 486.355,1028.54 C488.253,1027.95 490.146,1027.09 492.19,1027.66 C494.854,1028.4 496.564,1030.15 496.731,1032.96 C496.94,1036.47 494.987,1038.49 491.749,1039.49 C481.115,1042.81 470.494,1046.16 459.861,1049.48 C430.659,1058.6 401.452,1067.69 372.256,1076.83 C371.024,1077.21 369.881,1077.88 368.697,1078.42 C365.453,1078.54 362.204,1080.92 358.967,1078.39" fill="#6E4100"/>
    <path d="M160.844,1077.51 C156.199,1069.01 152.287,1060.33 152.235,1050.31 C152.188,1041.05 153.297,1032.08 157.429,1023.71 C159.718,1019.07 162.165,1013.63 168.166,1013.89 C174.7,1014.18 179.522,1018.46 182.288,1024.36 C185.948,1032.17 185.794,1040.54 184.609,1048.83 C183.571,1056.1 181.639,1063.17 177.471,1069.38 C175.783,1071.9 175.629,1074.65 175.615,1077.49 C170.688,1075.24 165.77,1078.64 160.844,1077.51" fill="#FEF8EA"/>
    <path d="M527.955,1076.52 C527.927,1073.62 526.92,1071.12 525.511,1068.56 C518.686,1056.15 516.658,1042.94 519.556,1029.02 C520.787,1023.11 524.167,1018.84 529.272,1015.75 C534.103,1012.83 536.472,1013.15 539.625,1017.98 C545.018,1026.23 546.974,1035.71 548.81,1045.2 C551.195,1057.52 551.046,1070.03 551.641,1082.48 C550.722,1078.13 547.973,1076.94 543.759,1077.45 C538.473,1078.09 533.29,1075.82 527.955,1076.52" fill="#FEF8EA"/>
    <path d="M260.532,1078.63 C255.848,1052.99 251.166,1027.35 246.48,1001.71 C245.551,996.632 247.121,993.282 251.037,992.827 C255.623,992.294 257.48,995.079 258.243,999.241 C263.095,1025.7 268.034,1052.14 272.944,1078.59 C271.637,1081.36 270.01,1083.74 266.462,1083.59 C263.234,1083.46 261.483,1081.51 260.532,1078.63" fill="#6E4100"/>
    <path d="M275.562,1078.63 C271.846,1056.2 268.13,1033.77 264.413,1011.34 C264.224,1010.19 263.961,1009.05 263.86,1007.9 C263.509,1003.9 265.459,1001.26 269.29,1000.9 C272.849,1000.57 275.184,1002.71 275.806,1006.39 C277.299,1015.23 278.897,1024.06 280.272,1032.92 C282.844,1049.48 286.485,1065.88 288.117,1082.59 C287.071,1085.98 284.691,1087.32 281.28,1086.91 C278.148,1086.52 276.865,1084.32 276.24,1081.53 C276.022,1080.56 275.788,1079.6 275.562,1078.63" fill="#6E4100"/>
    <path d="M291.776,1078.56 C291.574,1068.72 288.859,1059.25 287.389,1049.6 C285.816,1039.27 283.733,1029.01 282,1018.69 C281.538,1015.95 280.921,1012.95 283.335,1010.69 C285.001,1009.13 287.073,1008.59 289.348,1009.32 C292.307,1010.26 293.285,1012.61 293.76,1015.38 C296.114,1029.13 298.454,1042.88 300.877,1056.61 C302.174,1063.96 303.629,1071.28 305.013,1078.61 C304.965,1082.13 305.072,1085.81 300.56,1086.8 C297.008,1087.57 294.44,1086.11 293.186,1082.68 C292.69,1081.32 292.883,1079.72 291.776,1078.56" fill="#6E4100"/>
    <path d="M308.658,1079.56 C305.675,1061.73 302.661,1043.91 299.73,1026.07 C298.836,1020.64 300.359,1017.92 304.34,1017.27 C308.261,1016.62 310.734,1018.91 311.637,1024.15 C314.762,1042.3 317.855,1060.45 320.961,1078.6 C320.184,1081.84 318.904,1084.56 314.938,1084.67 C311.353,1084.77 309.523,1082.77 308.658,1079.56" fill="#6E4100"/>
    <g>
      <path d="M438.67,1078.41 C453.633,1072.61 469.177,1068.58 484.34,1063.4 C489.411,1061.67 495.068,1061.2 499.277,1056.6 C500.872,1063.12 502.536,1069.14 505.393,1074.74 C506.016,1075.97 506.09,1077.29 505.635,1078.61 C503.947,1078.53 502.259,1078.44 500.571,1078.35 C499.969,1077.73 499.803,1076.93 499.57,1076.14 C498.108,1071.17 496.287,1070.14 491.19,1071.62 C485.339,1073.31 479.704,1075.64 473.959,1077.65 C472.307,1078.22 470.692,1079.36 468.778,1078.53 C458.742,1078.49 448.706,1078.45 438.67,1078.41" fill="#BEBEBE"/>
      <path d="M468.778,1078.53 C476.554,1074.76 484.821,1072.28 493.01,1069.69 C498.322,1068 501.214,1071.62 500.571,1078.35 C492.641,1083.75 483.406,1085.96 474.377,1088.31 C469.143,1089.67 466.662,1084.83 468.778,1078.53" fill="#6E4100"/>
    </g>
    <path d="M111.904,525.516 C112.431,510.669 115.213,496.117 117.94,481.584 C125.681,440.325 138.118,400.618 158.974,363.979 C201.379,289.485 265.013,244.991 349.514,230.627 C437.44,215.68 546.29,255.849 604.884,349.472 C628.658,387.457 643.522,428.802 652.741,472.397 C656.046,488.026 658.503,503.796 660.437,519.649 C660.637,521.287 660.56,522.958 660.611,524.615 C657.675,528.771 652.825,530.128 648.698,532.383 C636.031,539.303 623.231,545.982 610.551,552.881 C608.933,553.761 607.343,554.691 605.387,554.028 C594.878,547.54 583.724,545.947 571.95,549.847 C568.015,551.15 565.944,554.652 566.778,557.819 C567.716,561.38 571.297,563.523 575.336,562.908 C577.146,562.632 578.839,561.795 580.654,561.608 C583.22,561.343 585.963,560.452 588.018,563.005 C587.755,565.434 585.604,566.043 583.956,566.978 C573.416,572.959 562.67,578.57 551.985,584.283 C546.422,587.258 540.967,590.441 535.3,593.22 C529.084,596.269 528.422,596.169 525.227,590.185 C523.539,587.022 520.414,584.551 520.391,580.551 C528.548,569.108 528.688,556.924 523.101,544.573 C519.739,537.139 514.317,531.375 505.636,530.537 C501.172,530.107 498.755,527.821 496.812,524.274 C495.607,522.073 494.85,519.672 493.628,517.493 C492.078,514.729 489.797,513.084 486.618,514.491 C483.746,515.762 483.156,518.37 483.92,521.251 C484.951,525.143 486.604,528.785 488.741,532.191 C490.21,534.533 490.606,536.791 488.7,539.085 C484.569,544.057 482.302,549.948 480.395,556.02 C478.908,558.953 476.148,558.786 473.471,558.917 C448.953,560.117 431.24,571.595 420.628,593.86 C418.151,599.057 417.346,604.667 416.18,610.203 C415.278,614.487 414.315,615.043 410.432,612.868 C395.594,604.559 380.555,604.977 365.284,611.459 C360.493,613.493 359.684,613.066 358.739,607.293 C356.674,594.682 351.15,583.828 341.876,575.131 C328.765,562.836 313.138,557.528 295.159,559.577 C293.002,559.823 290.847,560.172 288.825,559.001 C287.096,557.026 286.935,554.421 286.147,552.084 C283.91,545.453 280.319,539.77 274.982,535.212 C271.293,532.062 267.087,530.313 262.184,530.453 C256.347,530.62 255.075,529.778 252.936,524.31 C252.141,522.276 251.725,520.167 251.476,518.003 C251.079,514.55 249.783,511.586 245.709,511.899 C241.475,512.225 241.181,515.607 241.139,518.948 C241.089,523.028 241.547,527.209 243.887,530.457 C247.851,535.962 247.105,540.62 244.133,546.453 C239.916,554.729 239.882,563.772 243.06,572.686 C244.819,577.621 248.732,580.792 252.208,584.343 C252.397,589.156 249.218,592.617 247.028,596.368 C245.836,598.412 243.397,597.154 241.592,596.327 C236.006,593.77 230.737,590.595 225.36,587.654 C213.285,581.047 200.992,574.848 189.033,568.032 C187.611,567.222 185.348,566.881 185.871,564.313 C186.618,563.613 187.579,563.331 188.51,562.996 C191.727,561.835 193.218,559.416 193.181,556.133 C193.144,552.875 190.993,551.109 188.198,550.009 C180.331,546.913 172.361,547.269 164.347,549.358 C162.586,549.818 160.94,550.632 159.162,551.046 C152.455,549.872 147.255,545.47 141.395,542.526 C133.115,538.365 125.116,533.632 116.829,529.458 C114.912,528.493 112.849,527.7 111.904,525.516" fill="#FEF2DF"/>
    <path d="M627.85,707.612 C617.668,729.907 603.959,749.833 587.225,767.68 C551.136,806.169 505.927,827.605 454.779,837.157 C400.534,847.288 346.438,846.186 293.049,831.487 C226.331,813.118 177.228,772.901 145.965,711.068 C145.07,709.299 144.412,707.409 143.643,705.576 C145.503,704.16 147.186,705.298 148.753,706.094 C160.267,711.946 172.697,714.377 185.379,715.024 C194.044,715.466 202.776,714.058 210.639,710.058 C223.869,703.328 234.397,693.569 241.412,680.357 C246.684,670.425 247.407,660.074 243.578,649.436 C237.043,631.284 226.302,616.783 207.979,609.149 C200.715,606.122 193.061,604.512 185.061,604.824 C182.54,604.922 179.652,605.729 177.61,603.208 C177.544,601.238 179.036,600.33 180.369,599.449 C184.062,597.008 187.701,594.374 191.884,592.886 C195.881,591.464 199.066,589.058 201.966,586.113 C203.758,585.542 205.195,586.439 206.649,587.252 C216.954,593.012 227.371,598.583 237.88,603.943 C242.844,606.476 244.465,609.713 244.191,614.977 C243.586,626.587 246.314,637.507 252.705,647.247 C259.792,658.049 268.958,666.531 281.423,670.913 C283.132,671.513 284.978,671.916 286.08,673.593 C286.29,675.259 285.276,676.442 284.385,677.621 C270.396,696.133 263.377,717.573 258.258,739.804 C256.126,749.067 254.774,758.469 253.464,767.875 C253.372,768.535 253.281,769.196 253.245,769.862 C252.957,775.163 255.03,778.44 258.982,778.935 C262.99,779.436 265.881,777.053 266.666,771.577 C268.867,756.225 271.346,740.95 276.007,726.11 C281.964,707.146 290.172,689.451 304.532,675.196 C309.114,673.706 313.982,673.666 318.604,672.131 C339.18,665.294 352.382,651.507 358.022,630.638 C359.058,626.809 361.082,624.364 364.125,622.002 C375.65,613.053 399.425,611.631 411.989,624.997 C415.163,628.375 417.732,631.524 419.207,635.911 C427.379,660.202 451.07,675.915 476.705,674.443 C480.125,674.247 483.603,673.192 487.049,674.418 C489.896,683.915 496.628,691.397 500.376,700.504 C509.299,722.187 515.661,744.511 518.949,767.711 C519.416,771.011 519.058,774.348 518.742,777.676 C518.346,781.832 520.848,785.211 524.446,785.766 C527.699,786.269 530.88,783.82 532.105,779.951 C533.882,774.337 533.006,768.652 532.095,763.122 C527.552,735.551 520.173,708.84 507.474,683.769 C505.199,679.276 501.779,675.568 499.562,671.081 C499.266,669.965 499.779,669.123 500.629,668.549 C505.12,665.52 509.633,662.532 513.674,658.888 C514.375,658.255 515.414,657.893 516.289,658.881 C517.411,660.886 517.137,663.092 517.116,665.232 C516.983,679.059 523.125,690.358 533.138,698.866 C553.719,716.356 578.026,720.956 604.261,716.478 C611.062,715.317 617.192,712.295 622.852,708.296 C625.639,706.328 625.742,706.473 627.85,707.612" fill="#FEF2DF"/>
    <path d="M644.985,380.457 C632.801,354.459 618.327,329.896 599.828,307.811 C557.422,257.186 503.368,226.372 439.092,212.581 C335.13,190.276 210.592,236.908 146.949,343.819 C142.701,350.956 138.769,358.28 134.689,365.517 C131.764,365.572 131.311,363.086 130.617,361.203 C125.551,347.46 121.631,333.507 120.23,318.772 C118.271,298.17 120.505,277.984 124.69,257.939 C126.652,248.541 129.021,239.098 135.908,231.704 C153.058,216.31 171.937,203.267 191.616,191.404 C227.745,169.626 265.457,151.259 306.505,140.651 C347.542,130.046 389.215,127.816 431.277,132.479 C501.555,140.271 565.311,164.876 622.131,207.072 C633.742,215.694 645.144,224.639 654.871,235.471 C661.062,243.965 662.98,254.012 664.747,263.977 C669.251,289.396 670.626,314.874 664.31,340.242 C661.449,351.732 657.941,363.029 651.91,373.331 C650.221,376.216 649.168,379.915 644.985,380.457" fill="#FEFEFE"/>
    <path d="M548.015,997.208 C538.175,991.535 528.797,992.555 519.247,997.512 C517.725,981.077 516.258,965.216 514.786,949.355 C514.279,943.885 513.905,938.398 513.213,932.952 C512.106,924.251 506.854,920.864 498.443,923.418 C466.176,933.214 433.924,943.061 401.673,952.911 C374.82,961.112 347.966,969.306 321.149,977.623 C318.586,978.418 316.434,978.357 313.986,977.361 C291.219,968.104 268.434,958.894 245.602,949.799 C243.1,948.802 241.937,948.048 242.757,944.961 C250.583,915.5 262.242,887.953 283.293,865.323 C296.748,850.859 293.198,853.562 312.632,857.288 C314.656,857.676 314.817,858.785 315.137,860.289 C317.435,871.059 321.46,880.958 329.765,888.624 C331.133,889.886 331.203,891.578 331.509,893.178 C339.234,933.637 384.422,956.652 421.944,939.068 C444.358,928.564 457.674,910.953 461.729,886.488 C462.045,884.582 462.695,883.139 463.939,881.684 C469.524,875.146 472.572,867.495 472.883,858.921 C473.005,855.552 474.112,854.811 477.492,854.368 C487.438,853.065 494.285,857.085 500.755,864.342 C525.003,891.542 537.929,923.853 544.746,959.042 C547.121,971.305 548.242,983.719 548.015,997.208" fill="#FEFEFE"/>
    <path d="M627.85,707.612 C625.54,706.932 624.396,708.911 622.902,709.908 C609.174,719.064 594.016,720.904 578.081,718.793 C565.327,717.103 552.911,714.222 541.881,707.219 C524.14,695.955 514.135,680.449 515.799,658.711 C515.053,657.422 515.867,656.454 516.608,655.636 C524.583,646.835 529.233,636.474 531.227,624.838 C531.365,624.031 531.721,623.269 532.091,622.53 C541.435,610.918 553.445,603.343 567.66,599.14 C570.042,598.436 572.41,597.672 574.833,597.106 C583.131,600.511 589.061,606.506 593.427,614.195 C594.082,615.348 594.512,616.616 595.175,617.766 C596.908,620.769 599.55,621.788 602.786,620.829 C606.04,619.865 607.605,617.52 607.481,614.08 C607.364,610.823 606.087,608.002 604.427,605.267 C603.358,603.505 601.485,601.925 602.561,599.444 C604.484,598.017 606.394,598.963 608.235,599.578 C627.672,606.066 640.52,619.644 649.178,637.719 C650.057,639.554 649.83,641.628 650.547,643.488 C645.381,665.712 638.344,687.274 627.85,707.612" fill="#FFD7BA"/>
    <path d="M532.829,622.545 C531.074,636.447 525.299,648.455 515.799,658.71 C510.809,663.169 505.399,667.047 499.634,670.436 C496,673.765 491.754,675.248 486.829,674.682 C466.231,678.466 447.889,673.772 432.521,659.417 C425.8,653.139 421.019,645.338 417.858,636.547 C413.778,625.203 404.934,618.827 393.61,616.802 C382.458,614.809 371.776,617.221 362.667,624.628 C361.364,625.687 360.143,626.634 359.812,628.492 C355.207,654.326 331.665,674.808 304.889,675.865 C298.168,678.184 291.719,677.974 285.694,673.803 C261.945,666.008 247.705,649.904 243.27,625.239 C242.439,620.623 242.895,615.967 242.902,611.328 C242.904,609.615 242.928,608.138 241.05,607.156 C227.98,600.321 214.955,593.402 201.915,586.51 C195.97,585.883 191.906,581.235 186.554,579.338 C178.94,574.884 171.018,570.993 163.318,566.696 C157.97,564.08 152.76,561.206 147.543,558.343 C136.957,552.643 126.473,546.75 115.721,541.359 C113.944,540.468 112.215,539.5 111.228,537.644 C110.663,533.557 111.413,529.544 111.904,525.517 C127.575,533.796 143.246,542.075 158.917,550.354 C160.977,550.25 162.74,551.127 164.507,552.021 C170.662,555.136 176.502,558.842 182.783,561.725 C184.108,562.333 185.492,563.005 185.897,564.651 C199.298,571.972 212.691,579.308 226.104,586.606 C231.651,589.624 237.272,592.509 242.801,595.558 C244.961,596.748 246.23,596.848 247.252,594.088 C248.452,590.846 250.254,587.827 251.795,584.712 C252.709,579.979 256.251,576.952 259.391,573.893 C266.265,567.195 274.291,562.174 283.508,559.214 C285.267,558.65 287.027,558.157 288.892,558.664 C297.484,557.691 306.05,557.031 314.627,559.009 C338.637,564.549 355.752,582.628 360.017,607.075 C360.273,608.538 360.698,609.972 361.128,611.772 C378.975,603.211 396.661,602.047 414.285,613.764 C415.534,605.474 416.94,597.734 420.685,590.636 C431.942,569.299 449.729,558.549 473.67,557.602 C475.7,557.522 478.105,558.509 479.34,555.83 C481.524,556.569 483.703,557.231 485.996,557.678 C498.275,560.072 508.544,566.251 517.389,574.931 C519.044,576.555 520.61,578.32 520.896,580.803 C523.005,584.382 525.334,587.853 527.148,591.575 C528.484,594.314 529.716,594.826 532.465,593.318 C544.716,586.602 557.083,580.097 569.388,573.478 C575.539,570.169 581.645,566.777 587.771,563.423 C592.93,558.5 599.139,555.503 605.905,553.528 C616.293,548.123 626.705,542.762 637.061,537.298 C644.947,533.137 652.764,528.846 660.611,524.614 C660.897,528.848 661.183,533.081 661.469,537.314 C658.001,540.783 653.308,542.252 649.165,544.543 C638.016,550.71 626.764,556.705 615.472,562.616 C610.518,564.969 605.961,568.067 600.978,570.368 C593.779,574.6 586.103,577.953 578.995,582.354 C572.937,585.364 567.201,588.986 561.071,591.864 C553.136,596.411 544.908,600.413 536.922,604.87 C534.4,606.278 533.407,607.846 533.757,610.833 C534.215,614.735 534.933,618.791 532.829,622.545" fill="#97C6E0"/>
    <path d="M177.853,602.581 C179.316,604.264 181.293,603.595 183.015,603.525 C216.688,602.155 238.63,625.549 246.405,654.169 C249.222,664.539 246.878,674.676 241.172,683.646 C232.131,697.859 220.338,709.073 203.765,713.998 C190.181,718.034 176.665,716.306 163.145,712.88 C156.32,711.15 150.232,707.762 143.643,705.576 C134.243,686.774 127.393,667.074 122.852,646.56 C123.606,639.006 128.645,633.709 132.795,627.998 C136.531,622.856 141.277,618.663 146.505,615.052 C147.831,614.135 149.108,612.879 150.996,613.446 C152.805,616.81 153.601,621.234 158.782,621.16 C163.718,621.09 164.949,617.015 166.994,613.657 C169.732,609.159 171.771,603.849 177.853,602.581" fill="#FFD7BA"/>
    <path d="M507.916,104.595 C508.173,85.229 512.82,66.875 523.303,50.675 C538.845,26.656 562.615,18.916 589.848,20.978 C615.011,22.884 635.236,34.836 650.952,54.491 C652.236,57.088 651.73,59.629 650.853,62.227 C646.766,74.348 638.6,83.491 628.973,91.336 C610.136,106.685 588.467,115.073 564.214,117.11 C550.072,118.297 536.005,119.104 522.18,115.08 C516.233,113.348 510.448,111.107 507.916,104.595" fill="#FEFEFE"/>
    <path d="M96.071,485.74 C94.852,494.305 93.563,502.861 92.456,511.44 C92.127,513.993 90.932,515.708 88.87,517.068 C82.302,521.399 75.077,521.967 67.775,520.067 C42.731,513.548 28.992,496.741 23.792,471.839 C18.531,446.649 20.322,421.913 26.924,397.271 C33.448,372.92 42.657,349.678 55.006,327.691 C58.22,328.797 57.033,331.457 56.914,333.558 C55.061,366.465 55.483,399.186 65.485,431.022 C71.151,449.054 79.709,465.494 93.597,478.711 C95.708,480.72 96.962,482.79 96.071,485.74" fill="#FEFEFE"/>
    <path d="M673.756,470.594 C669.648,454.421 666.154,438.086 660.849,422.231 C658.442,415.036 656.093,407.82 653.718,400.613 C653.944,399.228 654.739,398.157 655.71,397.23 C668.5,385.015 674.222,369.078 679.282,352.754 C684.758,335.085 686.875,317.002 686.365,298.566 C686.176,291.749 685.354,284.979 684.767,278.191 C684.513,275.26 683.585,272.233 685.762,269.575 C694.432,279.299 701.68,290.01 707.908,301.432 C712.324,312.421 712.878,324.15 713.958,335.689 C714.885,345.591 715.719,355.565 715.189,365.563 C713.819,391.42 710.884,416.947 699.984,440.891 C695.145,451.521 688.339,460.625 679.462,468.177 C677.86,469.54 676.243,471.179 673.756,470.594" fill="#FEFEFE"/>
    <path d="M123.69,388.655 C114.771,411.429 107.052,434.582 101.636,458.463 C98.515,458.75 97.352,456.259 95.984,454.279 C90.362,446.137 86.207,437.245 83.101,427.88 C76.816,408.924 73.998,389.368 73.418,369.465 C72.772,347.26 74.136,325.201 78.913,303.449 C79.801,299.405 78.584,295.506 78.752,291.536 C86.361,280.924 94.807,271.019 103.951,261.703 C106.536,263.178 105.198,265.505 104.943,267.364 C103.069,281.049 101.996,294.763 102.235,308.596 C102.694,335.184 108.944,360.221 121.792,383.55 C122.688,385.176 123.375,386.835 123.69,388.655" fill="#FEFEFE"/>
    <path d="M614.656,561.829 C628.719,554.25 642.773,546.655 656.858,539.117 C658.302,538.344 659.927,537.912 661.469,537.318 C662.248,573.16 659.139,608.606 650.547,643.488 C645.701,632.674 639.92,622.447 631.03,614.388 C622.918,607.034 613.726,601.581 602.752,599.631 C600.98,600.143 599.926,598.904 598.954,597.868 C593.602,592.163 587.49,587.453 580.718,583.566 C579.868,583.078 579.082,582.439 578.719,581.448 C585.677,576.741 593.286,573.239 600.787,569.535 C608.094,571.798 612.171,568.247 614.656,561.829" fill="#FEF2DF"/>
    <path d="M734.67,358.649 C749.35,404.55 750.423,449.751 727.592,493.668 C723.824,500.918 719.261,507.603 713.1,513.157 C703.897,521.452 693.536,521.984 682.332,518.485 C680.727,517.983 680.856,517.018 680.709,515.906 C679.684,508.161 678.65,500.418 677.618,492.674 C677.444,490.342 679.354,489.585 680.847,488.713 C701.003,476.945 712.857,458.736 720.53,437.38 C726.977,419.437 730.33,400.866 731.592,381.838 C731.999,375.703 732.355,369.587 732.48,363.444 C732.517,361.651 731.904,359.304 734.67,358.649" fill="#FEFEFE"/>
    <path d="M150.805,613.526 C137.952,621.545 129.082,632.936 122.852,646.56 C118.445,631.905 116.204,616.82 114.239,601.708 C111.603,581.437 110.51,561.056 110.879,540.607 C110.897,539.618 111.107,538.632 111.228,537.644 C123.553,544.079 135.982,550.323 147.898,557.513 C148.633,559.247 147.273,560.671 147.187,562.299 C147.036,565.151 147.743,567.605 150.268,569.167 C152.758,570.708 155.317,570.535 157.769,568.974 C159.685,567.755 161.156,565.706 163.763,565.792 C171.537,569.896 179.516,573.623 186.879,578.476 C185.895,581.184 183.177,581.597 181.073,582.744 C171.676,587.865 163.211,594.02 156.837,602.837 C154.402,606.206 153.94,610.608 150.805,613.526" fill="#FEF2DF"/>
    <path d="M78.752,291.536 C81.215,295.25 81.375,299.241 80.466,303.487 C75.007,328.971 73.692,354.686 75.674,380.669 C77.406,403.381 81.655,425.362 92.383,445.694 C94.842,450.353 97.223,455.173 101.636,458.463 C99.781,467.556 97.926,476.648 96.07,485.74 C95.675,484.204 95.959,482.63 94.431,481.272 C76.13,465.019 66.787,443.723 61.085,420.592 C53.97,391.727 53.409,362.385 55.601,332.897 C55.728,331.177 56.547,329.266 55.006,327.691 C62.088,315.092 69.737,302.866 78.752,291.536" fill="#BEBEBE"/>
    <path d="M507.916,104.595 C515.795,114.031 526.889,115.773 538.058,116.528 C556.124,117.748 574.108,116.066 591.282,110.379 C613.734,102.944 633.11,90.719 645.878,69.959 C648.767,65.261 650.88,60.177 650.952,54.491 C656.992,61.516 661.789,69.321 665.568,77.766 C663.828,84.828 659.203,90.14 654.465,95.22 C631.476,119.87 603.07,133.665 569.569,137.053 C560.028,138.018 550.514,139.51 540.875,138.449 C533.405,135.765 525.956,133.022 518.453,130.434 C516.429,129.737 515.228,128.461 514.027,126.77 C509.279,120.089 508.094,112.497 507.916,104.595" fill="#BEBEBE"/>
    <path d="M734.67,358.649 C732.986,361.59 733.915,364.806 733.809,367.881 C732.831,396.119 729.051,423.775 716.896,449.681 C709.035,466.436 698.072,480.525 681.64,489.791 C680.212,490.596 678.955,491.706 677.618,492.675 C676.331,485.314 675.043,477.954 673.756,470.594 C687.577,461.518 695.925,448.299 701.673,433.238 C708.609,415.066 711.518,396.104 712.914,376.757 C714.687,352.187 712.69,327.975 707.865,303.908 C707.707,303.117 707.886,302.259 707.908,301.432 C717.049,314.724 723.765,329.263 729.703,344.181 C731.586,348.913 733.027,353.822 734.67,358.649" fill="#BEBEBE"/>
    <path d="M540.875,138.449 C547.47,136.711 554.276,137.441 560.971,136.784 C575.885,135.321 590.718,133.272 604.629,127.606 C629.974,117.282 651.436,101.933 665.568,77.766 C667.279,81.261 669.151,84.696 669.728,88.626 C666.886,101.761 661.687,113.999 654.93,125.518 C649.102,135.451 642.051,144.446 632.957,151.779 C623.156,159.683 611.968,163.785 599.624,165.18 C598.296,165.331 596.97,165.313 595.722,164.717 C577.954,154.887 559.851,145.757 540.875,138.449" fill="#FEFEFE"/>
    <path d="M685.762,269.575 C686.109,282.839 688.169,296.002 687.733,309.325 C686.883,335.29 680.732,359.846 668.617,382.824 C664.961,389.757 660.126,395.892 653.718,400.613 C650.807,393.894 647.896,387.176 644.985,380.457 C653.081,371.627 656.789,360.608 660.216,349.505 C670.947,314.738 668.557,280.131 658.6,245.676 C657.597,242.205 656.126,238.87 654.871,235.472 C666.379,245.742 676.869,256.936 685.762,269.575" fill="#BEBEBE"/>
    <path d="M123.69,388.655 C115.637,378.542 111.93,366.445 107.983,354.44 C101.172,333.725 99.888,312.383 101.01,290.841 C101.518,281.104 102.942,271.414 103.951,261.703 C113.775,250.821 124.38,240.772 135.908,231.705 C125.929,250.285 123.325,270.527 121.584,291.188 C119.5,315.925 123.473,339.459 132.568,362.338 C133.056,363.565 133.234,364.954 134.69,365.517 C131.023,373.23 127.356,380.942 123.69,388.655" fill="#BEBEBE"/>
    <path d="M595.722,164.717 C607.161,162.733 618.521,160.703 628.307,153.648 C643.32,142.824 653.24,128.158 660.568,111.542 C663.17,105.643 665.085,99.442 667.314,93.38 C667.932,91.701 668.038,89.761 669.728,88.626 C675.039,102.184 677.11,116.14 674.881,130.623 C664.268,152.25 649.067,169.316 626.623,179.195 C624.781,180.005 622.907,180.551 620.88,180.479 C612.494,175.225 604.108,169.971 595.722,164.717" fill="#BEBEBE"/>
    <path d="M354.986,898.794 C369.901,898.797 382.197,893.222 392.992,883.897 C394.08,882.957 394.898,881.639 396.683,883.188 C408.365,893.327 422.344,895.702 437.212,894.963 C437.337,894.957 437.471,895.139 437.6,895.233 C433.618,909.879 415.072,923.301 396.712,924.825 C381.29,926.105 361.925,914.229 354.986,898.794" fill="#D3A0F2"/>
    <path d="M705.671,582.183 C705.108,593.044 704.517,603.372 699.547,612.773 C695.137,621.113 688.202,626.061 678.863,627.615 C676.386,628.027 674.95,628.176 675.571,624.556 C679.859,599.572 682.294,574.408 681.895,549.026 C681.853,546.376 682.827,545.59 685.353,545.53 C692.368,545.364 697.658,548.792 700.951,555.87 C704.922,564.405 705.011,573.602 705.671,582.183" fill="#FEF8EA"/>
    <path d="M96.8,625.288 C97.584,628.781 95.074,627.685 93.565,627.367 C84.321,625.417 77.274,620.222 73.718,611.516 C66.39,593.571 66.385,575.205 72.469,556.915 C74.605,550.494 79.178,546.393 86.327,545.624 C89.366,545.297 90.384,546.111 90.389,549.297 C90.414,565.109 91.159,580.901 92.945,596.616 C94.034,606.196 95.502,615.732 96.8,625.288" fill="#FEF8EA"/>
    <path d="M220.947,1048.77 C221.248,1050.23 220.828,1050.93 218.578,1050.74 C210.735,1050.06 209.79,1049.46 208.398,1041.69 C204.826,1021.75 201.386,1001.78 197.823,981.83 C197.208,978.386 196.951,976.671 201.733,978.052 C206.543,979.442 208.598,981.596 209.457,986.606 C212.883,1006.57 216.835,1026.45 220.588,1046.36 C220.711,1047.01 220.785,1047.68 220.947,1048.77" fill="#BEBEBE"/>
    <path d="M382.581,864.639 C374.042,873.284 364.748,880.325 351.63,877.615 C343.142,875.861 339.438,869.338 336.574,861.194 C352.247,862.805 367.269,863.882 382.581,864.639" fill="#D3A0F2"/>
    <path d="M620.88,180.479 C644.016,171.682 660.154,155.156 672.215,134.092 C672.927,132.849 673.402,131.32 674.881,130.623 C672.057,158.519 653.288,176.753 627.284,183.441 C624.314,184.205 622.789,181.953 620.88,180.479" fill="#FEFDFD"/>
    <path d="M452.146,858.562 C451.653,864.945 448.736,869.082 443.707,871.796 C435,876.495 419.14,874.985 411.425,868.743 C410.145,867.708 408.45,866.698 408.792,864.807 C409.23,862.383 411.554,863.36 412.951,863.244 C425.867,862.168 438.748,860.827 452.146,858.562" fill="#D3A0F2"/>
    <path d="M349.183,1039.54 C345.717,1039.37 343.498,1037.82 342.924,1034.62 C342.31,1031.19 343.891,1028.73 347.187,1027.68 C354.625,1025.32 362.101,1023.07 369.572,1020.82 C406.602,1009.61 443.634,998.423 480.666,987.23 C481.619,986.942 482.57,986.642 483.532,986.388 C488.173,985.161 491.583,986.474 492.372,990.114 C493.273,994.27 491.178,996.637 487.233,997.83 C441.938,1011.53 396.657,1025.28 351.37,1039.01 C350.582,1039.25 349.769,1039.4 349.183,1039.54" fill="#6E4100"/>
    <path d="M347.337,1018.58 C343.475,1018.39 341.34,1016.79 340.825,1013.55 C340.268,1010.05 342.037,1007.77 345.295,1006.73 C351.633,1004.72 358.008,1002.83 364.372,1000.9 C403.03,989.183 441.688,977.468 480.355,965.782 C481.924,965.308 483.634,964.714 485.189,964.904 C488.105,965.26 490.088,967.212 490.457,970.14 C490.859,973.339 489.242,975.604 486.138,976.571 C476.775,979.492 467.402,982.385 458.015,985.227 C422.376,996.015 386.73,1006.78 351.084,1017.55 C349.664,1017.98 348.222,1018.34 347.337,1018.58" fill="#6E4100"/>
    <path d="M351.594,1060.42 C347.569,1060.18 345.446,1058.46 344.953,1055.29 C344.417,1051.84 346.18,1049.54 349.479,1048.51 C357.74,1045.96 366.012,1043.43 374.289,1040.93 C410.259,1030.04 446.232,1019.17 482.205,1008.29 C483.319,1007.96 484.437,1007.63 485.561,1007.33 C490.245,1006.05 493.376,1007.32 494.462,1010.94 C495.513,1014.43 493.526,1017.39 488.863,1018.81 C447.337,1031.42 405.797,1043.99 364.262,1056.57 C359.814,1057.92 355.368,1059.27 351.594,1060.42" fill="#6E4100"/>
    <path d="M254.844,1069.18 C254.851,1072.67 253.139,1075.08 249.391,1075.43 C245.581,1075.8 243.533,1073.54 242.858,1070 C240.559,1057.94 238.283,1045.88 236.063,1033.81 C233.541,1020.1 231.115,1006.38 228.588,992.669 C227.833,988.576 229.124,985.526 233.282,984.761 C237.551,983.975 239.747,986.761 240.47,990.63 C245.252,1016.24 249.972,1041.86 254.704,1067.47 C254.794,1067.96 254.788,1068.46 254.844,1069.18" fill="#6E4100"/>
    <path d="M288.892,558.664 C273.494,563.028 260.98,571.5 251.795,584.712 C240.984,577.891 236.942,564.465 241.255,549.832 C242.485,545.657 246.201,541.938 246.284,538.184 C246.361,534.726 242.19,531.298 240.971,527.276 C239.9,523.745 239.462,520.125 239.587,516.458 C239.714,512.739 241.837,510.559 245.453,510.255 C249.282,509.933 251.811,511.858 252.599,515.675 C253.033,517.777 252.992,519.982 253.475,522.069 C254.956,528.47 256.187,529.244 262.768,529.11 C269.184,528.979 274.265,532.02 278.508,536.515 C284.379,542.736 287.832,550.156 288.892,558.664" fill="#6E4100"/>
    <path d="M520.896,580.803 C510.639,568.485 497.962,560.368 481.798,558.345 C480.214,558.147 479.41,557.396 479.34,555.827 C480.841,549.261 483.49,543.206 487.973,538.14 C489.479,536.439 489.535,535.37 488.285,533.521 C485.777,529.813 483.801,525.804 482.507,521.462 C481.302,517.42 482.645,514.552 486.327,512.921 C489.907,511.336 493.247,513.14 495.001,517.216 C495.917,519.345 496.827,521.48 497.836,523.566 C499.541,527.089 501.432,529.71 506.312,529.443 C511.526,529.158 515.804,532.333 519.087,536.242 C528.257,547.164 530.329,559.562 525.999,573.041 C525.039,576.028 523.563,578.852 520.896,580.803" fill="#6E4100"/>
    <path d="M519.789,363.59 C520.219,355.81 512.696,346.58 505.001,345.377 C502.138,344.93 499.916,345.973 497.746,347.771 C493.618,351.188 489.605,351.132 486.731,347.877 C483.822,344.582 484.449,340.039 488.457,336.511 C495.995,329.875 504.625,328.808 513.511,332.865 C524.339,337.808 531.638,346.064 534.261,357.986 C534.804,360.458 534.807,362.934 534.324,365.401 C533.304,370.609 530.318,373.18 525.949,372.683 C521.603,372.189 519.487,369.065 519.789,363.59" fill="#6E4100"/>
    <path d="M240.788,363.564 C241.083,369.056 239.009,372.142 234.659,372.682 C230.212,373.235 226.965,370.358 226.157,364.938 C225.453,360.211 226.258,355.611 228.371,351.383 C233.508,341.103 241.129,333.592 252.73,331.123 C261.076,329.347 268.158,332.044 273.811,338.292 C276.531,341.299 276.417,344.806 273.817,347.791 C271.211,350.783 267.841,351.192 264.389,349.081 C256.03,343.968 250.758,344.897 244.63,352.641 C241.528,356.561 240.56,359.313 240.788,363.564" fill="#6E4100"/>
    <path d="M605.905,553.528 C599.861,556.827 593.816,560.126 587.771,563.424 C584.163,561.513 580.687,562.857 577.203,563.864 C571.361,565.552 566.868,563.472 565.23,558.302 C563.93,554.199 566.943,549.752 572.467,548.245 C584.364,545.001 595.749,545.51 605.905,553.528" fill="#F5CEA9"/>
    <path d="M185.897,564.651 C176.903,559.886 167.909,555.121 158.916,550.355 C169.105,545.093 179.533,545.141 190.014,549.228 C193.665,550.652 195.338,553.72 194.626,557.631 C193.764,562.365 190.788,564.774 185.897,564.651" fill="#F5CEA9"/>
    <path d="M390.939,775.581 C381.317,775.15 373.792,770.013 366.833,763.918 C356.747,755.084 348.564,744.571 341.015,733.567 C337.933,729.074 338.867,723.927 342.872,721.248 C346.987,718.495 351.547,719.492 354.939,724.202 C361.757,733.671 368.743,742.986 377.479,750.818 C389.249,761.371 394.659,761.141 405.343,749.347 C412.645,741.286 418.26,732.038 423.374,722.484 C425.316,718.856 428.271,717.072 432.356,717.632 C436.035,718.136 438.169,720.481 439.275,723.979 C439.882,725.898 439.584,727.703 438.731,729.3 C430.941,743.88 422.514,758.014 409.332,768.543 C404.013,772.792 398.029,775.499 390.939,775.581" fill="#6E4100"/>
    <path d="M486.829,674.682 C491.098,673.267 495.366,671.853 499.634,670.437 C507.948,678.8 512.163,689.56 516.422,700.15 C524.559,720.38 530.131,741.394 533.521,762.924 C534.355,768.221 535,773.688 533.844,779.185 C532.787,784.209 528.63,788.094 524.259,787.44 C519.407,786.715 516.778,782.147 517.519,776.7 C518.821,767.125 516.243,757.872 514.22,748.694 C510.14,730.18 504.475,712.123 496.357,694.935 C494.595,691.204 492.364,687.642 489.955,684.286 C487.836,681.334 486.169,678.443 486.829,674.682" fill="#F5CEA8"/>
    <path d="M285.694,673.803 C291.966,675.662 298.404,675.98 304.889,675.863 C300.944,682.181 295.406,687.241 291.551,693.72 C280.499,712.297 274.592,732.553 270.835,753.586 C269.672,760.098 268.884,766.676 267.822,773.207 C267.026,778.109 263.831,780.778 259.331,780.516 C254.693,780.246 251.497,776.945 251.905,771.705 C253.078,756.645 255.85,741.809 259.93,727.286 C265.354,707.98 272.729,689.52 285.694,673.803" fill="#F5CEA8"/>
    <path d="M150.805,613.526 C154.797,598.562 166.073,590.127 178.487,582.759 C181.182,581.16 184.076,579.896 186.879,578.477 C192.238,580.503 197.038,583.577 201.914,586.51 C201.2,590.082 198.381,591.58 195.429,592.675 C189.028,595.05 183.462,598.839 177.853,602.581 C172.682,606.16 169.228,611.105 166.761,616.775 C164.869,621.125 161.687,623.407 157.004,622.369 C152.522,621.374 150.61,618.062 150.805,613.526" fill="#F5CEA8"/>
    <path d="M397.751,654.655 C397.036,659.838 395.136,663.31 390.723,664.899 C386.325,666.482 382.307,665.488 379.525,661.924 C376.902,658.561 374.727,654.763 372.869,650.909 C370.861,646.743 371.949,642.762 375.242,639.571 C378.587,636.331 382.814,635.496 386.671,637.852 C393.101,641.78 395.428,648.655 397.751,654.655" fill="#6E4100"/>
    <path d="M578.719,581.448 C588.295,585.439 595.348,592.767 602.752,599.63 C604.065,603.749 607.826,606.664 608.453,611.102 C608.914,614.37 609.674,617.708 606.548,620.308 C603.89,622.519 601.018,623.24 597.755,622 C596.165,621.396 594.598,620.515 594.061,618.853 C590.826,608.831 583.01,603.021 574.756,597.585 C569.494,596.597 564.433,595.197 560.872,590.752 C566.821,587.65 572.77,584.549 578.719,581.448" fill="#F5CEA8"/>
    <path d="M560.872,590.752 C565.501,593.029 570.129,595.307 574.757,597.585 C573.339,599.612 570.977,599.398 568.969,599.981 C556.485,603.611 545.536,609.795 536.521,619.265 C535.39,620.454 534.064,621.457 532.829,622.546 C532.485,617.951 533.421,613.287 532.105,608.747 C531.524,606.74 532.556,605.715 534.19,604.857 C543.098,600.181 551.981,595.458 560.872,590.752" fill="#FEF2DF"/>
    <path d="M285.91,572.506 C301.451,566.353 316.201,568.67 329.392,578.169 C345.73,589.935 352.386,606.638 348.416,626.254 C344.484,645.682 332.001,658.236 312.596,663.113 C293.879,667.817 274.829,660.358 263.013,644.213 C252.449,629.779 251.714,607.884 260.971,592.231 C262.612,589.456 264.981,588.709 267.552,587.806 C274.935,584.222 280.903,578.941 285.91,572.506" fill="#FEFEFE"/>
    <path d="M510.564,587.285 C521.762,600.78 523.918,616.205 518.53,632.306 C512.879,649.193 500.626,659.981 483.1,663.368 C457.794,668.257 433.958,652.964 427.687,629.059 C419.52,597.927 444.228,568.136 474.402,569.47 C476.564,569.566 478.728,569.637 480.891,569.72 C482.298,570.946 483.145,572.571 484.101,574.131 C489.494,582.927 497.028,587.738 507.673,586.67 C508.711,586.567 509.637,586.908 510.564,587.285" fill="#FEFEFE"/>
    <path d="M510.564,587.285 C496.527,589.783 485.313,583.144 480.891,569.719 C492.919,571.965 503.182,577.193 510.564,587.285" fill="#6E4301"/>
    <path d="M163.763,565.792 C162.617,566.717 161.444,567.613 160.328,568.574 C156.134,572.185 151.72,572.561 148.376,569.561 C145.133,566.652 144.956,562.179 147.898,557.513 C153.187,560.272 158.475,563.032 163.763,565.792" fill="#F5CEA9"/>
    <path d="M285.91,572.506 C282.185,580.474 276.326,585.883 267.556,587.805 C266.497,587.483 263.632,588.295 266.005,585.688 C271.516,579.631 277.648,574.441 285.91,572.506" fill="#704502"/>
    <path d="M614.656,561.829 C613.228,570.894 607.709,573.96 600.786,569.536 C605.41,566.966 610.033,564.398 614.656,561.829" fill="#F3CFAA"/>
  </g>
</svg>
