<?xml version="1.0" encoding="UTF-8"?>
<!DOCTYPE svg PUBLIC "-//W3C//DTD SVG 1.1//EN" "http://www.w3.org/Graphics/SVG/1.1/DTD/svg11.dtd">
<svg version="1.1" xmlns="http://www.w3.org/2000/svg" xmlns:xlink="http://www.w3.org/1999/xlink" x="0" y="0" width="1165" height="1075" viewBox="0, 0, 1165, 1075">
  <defs>
    <clipPath id="Clip_1">
      <path d="M0,0.99 L1164.5,0.99 L1164.5,1074.94 L0,1074.94 z"/>
    </clipPath>
  </defs>
  <g id="Layer_1">
    <g clip-path="url(#Clip_1)">
      <path d="M65.444,678.972 C65.921,665.333 61.864,652.769 56.252,640.599 C48.088,622.896 37.277,606.663 27.872,589.649 C19.03,573.652 13.538,556.423 10.502,538.471 C8.207,524.894 6.874,511.163 7.459,497.368 C8.52,472.328 13.117,448.07 23.316,424.956 C31.49,406.432 42.88,390.254 57.546,376.463 C71.16,363.661 86.684,353.403 103.15,344.63 C129.888,330.384 157.996,319.067 185.437,306.324 C210.24,294.806 233.144,280.048 255.062,263.747 C256.132,262.951 257.011,261.9 258.513,262.022 C260.101,264.313 258.869,266.576 258.25,268.72 C252.413,288.958 248.645,309.603 246.917,330.555 C243.834,367.951 247.894,404.662 258.47,440.672 C260.822,448.681 263.612,456.522 266.755,464.235 C268.285,467.987 267.421,470.15 263.593,471.521 C255.312,474.488 248.199,479.184 242.06,485.6 C227.362,500.959 228.008,535.64 244.408,549.568 C251.217,555.351 259.227,558.412 267.708,560.501 C272.725,561.737 277.824,562.614 282.985,562.989 C287.504,563.318 289.679,565.578 290.343,570.14 C292.361,584.012 295.572,597.641 299.803,611.006 C310.348,644.318 326.647,674.356 350.154,700.44 C365.36,717.313 382.75,731.304 402.333,742.703 C407.587,745.761 407.74,746.646 404.693,751.732 C390.904,774.743 377.349,797.888 364.195,821.268 C361.078,826.81 359.27,826.845 356.026,821.319 C348.856,809.106 341.725,796.871 334.636,784.611 C332.301,780.57 332.294,777.006 333.929,772.791 C338.973,759.787 340.369,746.336 338.111,732.528 C333.974,707.236 315.96,689.772 290.394,686.326 C289.073,686.148 287.752,685.921 286.431,685.815 C282.137,685.471 280.093,683.156 279.209,678.97 C275.444,661.137 270.063,643.817 261.677,627.559 C257.997,620.424 253.672,613.58 247.776,608.121 C231.438,592.994 205.885,599.502 198.119,620.521 C194.897,629.243 194.961,638.247 196.398,647.16 C199.431,665.968 207.801,682.578 218.666,697.995 C223.853,705.357 223.915,705.171 218.062,711.706 C210.663,719.968 206.469,729.894 203.631,740.477 C200.208,753.239 199.352,766.074 202.559,779.01 C207.453,798.744 219.361,812.041 239.021,817.742 C244.201,819.245 246.855,822.157 249.176,826.893 C264.608,858.384 282.075,888.609 305.075,915.372 C314.607,926.464 325.239,936.146 337.51,944.061 C339.052,945.056 340.648,945.949 342.234,946.868 C354.082,953.731 365.317,952.456 376.476,944.946 C390.243,935.681 402.418,924.708 413.641,912.53 C420.976,904.571 428.454,896.748 435.496,888.521 C436.667,887.153 438.154,885.328 440.036,886.027 C441.996,886.755 441.557,889.128 441.665,890.919 C442.92,911.833 444.241,932.745 445.449,953.658 C446.522,972.254 447.961,990.829 448.873,1009.44 C449.198,1016.05 449.24,1022.75 450.277,1029.34 C450.533,1030.97 450.807,1032.69 449.174,1033.9 C431.889,1034.24 414.562,1033.94 397.326,1035.04 C361.597,1037.33 325.838,1037.41 290.109,1036.61 C270.803,1036.18 251.474,1034.4 232.213,1032.07 C200.364,1028.23 169.045,1022.22 138.697,1011.77 C110.853,1002.18 84.637,989.26 62.214,969.907 C46.413,956.269 33.159,940.321 23.256,921.704 C12.951,902.333 5.094,882.095 1.841,860.39 C-3.41,825.35 2.142,792.663 24.04,763.638 C35.027,749.076 46.265,734.604 54.946,718.477 C58.376,712.105 61.838,705.55 62.401,698.042 C83.277,700.009 104.085,696.13 124.961,697.277 C127.915,697.44 130.935,696.695 133.808,695.835 C138.66,694.383 141.835,689.728 141.178,685.295 C140.482,680.601 136.403,676.281 131.562,676.76 C116.943,678.204 102.289,676.731 87.661,677.879 C80.295,678.457 72.929,680.438 65.444,678.972" fill="#E4E9EE"/>
      <path d="M449.174,1033.9 C447.843,1012.15 446.515,990.395 445.18,968.64 C443.558,942.232 441.931,915.824 440.303,889.415 C440.245,888.47 440.156,887.527 439.988,885.393 C437.431,888.318 435.536,890.503 433.622,892.671 C417.634,910.779 401.593,928.847 381.758,942.969 C374.823,947.906 367.576,952.303 358.703,952.906 C352.205,953.348 346.655,950.548 341.255,947.668 C324.952,938.973 312.126,926.176 300.533,912.08 C278.949,885.836 262.12,856.615 247.38,826.135 C245.688,822.636 243.829,820.457 239.768,819.322 C215.609,812.573 200.758,793.758 199.532,768.212 C198.428,745.213 204.08,724.286 220.447,707.249 C222.914,704.681 220.99,703.624 219.833,702.027 C207.801,685.412 198.432,667.56 194.984,647.1 C193.536,638.512 193.424,629.857 196.324,621.44 C200.826,608.373 210.544,601.01 223.542,598.362 C235.407,595.946 244.486,601.866 251.858,610.594 C264.388,625.43 270.766,643.285 276.245,661.504 C278.109,667.7 279.52,674.052 280.771,680.405 C281.311,683.143 282.285,684.23 285.147,684.429 C293.672,685.024 301.879,687.04 309.575,690.892 C329.367,700.797 338.574,717.518 340.221,738.929 C341.192,751.558 339.218,763.809 334.33,775.538 C333.554,777.398 332.82,779.018 334.071,781.143 C342.67,795.758 351.137,810.451 359.616,825.068 C361.39,824.662 361.671,823.202 362.287,822.103 C375.948,797.729 390.005,773.585 404.467,749.678 C405.593,747.817 406.891,746.589 403.819,744.854 C349.349,714.101 315.805,667.012 297.531,608.103 C293.484,595.057 290.695,581.706 288.652,568.218 C288.234,565.459 287.22,564.682 284.687,564.44 C276.236,563.634 267.832,562.472 259.741,559.726 C241.911,553.673 231.649,540.303 230.405,521.527 C228.712,495.979 239.452,479.204 263.435,470.224 C266.005,469.262 267.153,468.807 265.868,465.538 C240.013,399.784 238.537,333.01 257.842,265.42 C258.158,264.313 258.293,263.155 258.513,262.022 C261.385,256.683 261.899,251.998 258.606,245.955 C238.738,209.493 240.783,173.579 263.02,138.742 C277.039,116.779 296.033,99.632 316.86,84.401 C351.162,59.314 388.749,40.053 428.055,24.425 C454.854,13.77 483.34,8.773 511.924,5.027 C531.085,2.516 550.348,0.432 569.667,1.125 C612.423,2.658 654.958,7.786 695.102,22.728 C746.116,41.715 794.107,66.956 835.094,103.682 C854.68,121.231 870.682,141.453 878.839,166.977 C885.397,187.499 884.748,207.938 877.9,228.27 C877.375,229.829 876.911,231.408 876.418,232.977 C876.647,243.413 880.393,253.172 882.357,263.273 C888.305,293.863 889.887,324.768 888.422,355.74 C886.696,392.243 880.646,428.189 871.321,463.556 C869.56,470.234 869.633,470.299 875.577,473.656 C898.277,486.478 904.774,512.972 895.759,536.777 C893.606,542.465 893.436,542.471 899.442,543.82 C924.147,549.37 947.216,558.468 966.6,575.283 C985.599,591.763 1003.69,609.162 1020.28,628.132 C1034.44,644.331 1047.83,661.081 1059.68,679.048 C1061.16,681.295 1062.42,683.602 1063.14,686.192 C1073.31,703.533 1083.18,721.016 1090.62,739.773 C1102.72,770.285 1109.71,801.737 1108.24,834.725 C1107.08,860.661 1100.39,885.316 1089.21,908.622 C1060.64,968.194 1017.19,1013.06 956.966,1041.14 C930.019,1053.7 901.394,1057.36 872.019,1057.97 C837.892,1058.67 803.779,1059 769.704,1056.82 C738.329,1054.82 706.928,1052.78 676.3,1044.89 C673.81,1044.25 673.234,1044.85 673.112,1047.28 C672.771,1054.09 672.184,1060.89 671.674,1067.69 C671.394,1071.43 669.566,1074.13 665.811,1074.76 C661.846,1075.42 658.546,1074.24 657.258,1069.88 C654.668,1058.13 656.701,1046.37 657.414,1034.66 C658.172,1022.21 659.085,1009.77 659.933,997.33 C660.894,983.228 661.755,969.118 662.676,955.012 C663.477,942.731 664.298,930.443 664.881,918.153 C665.45,906.187 666.641,894.26 666.954,882.287 C667.123,875.827 666.967,875.838 660.663,874.834 C655.73,874.049 650.707,874.085 645.793,873.063 C638.838,871.616 632.262,869.5 627.19,864.135 C622.382,859.049 620.579,853.084 621.809,846.22 C622.88,840.241 625.091,834.739 628.512,829.672 C636.702,817.542 646.933,807.383 658.143,798.071 C669.799,788.389 681.272,778.482 692.144,767.908 C693.062,767.016 694.617,766.286 693.96,764.713 C693.285,763.095 691.808,762.195 690.008,762.084 C688.475,761.99 687.079,762.637 685.648,763.07 C665.814,769.067 645.701,773.589 624.895,774.247 C621.095,774.368 618.898,776.267 616.921,779.281 C607.867,793.083 596.905,804.951 582.535,813.513 C570.63,820.607 558.808,821.018 546.38,814.982 C531.701,807.853 520.946,796.436 511.137,783.876 C509.702,782.038 508.214,780.222 507.003,778.233 C505.272,775.388 502.84,774.443 499.546,774.165 C474.169,772.019 449.443,766.887 425.873,757.014 C422.002,755.393 419.899,756.03 417.73,759.593 C403.612,782.797 390.126,806.364 376.78,830.015 C374.161,834.656 371.859,839.491 368.895,843.921 C363.413,852.114 356.344,852.026 351.345,843.554 C342.962,829.35 334.733,815.055 326.439,800.798 C323.682,796.06 323.619,796.07 319.823,799.861 C306.232,813.436 289.892,821.27 270.806,823.393 C269.811,823.503 268.838,823.789 267.847,823.868 C265.166,824.079 264.867,825.233 266.11,827.449 C270.675,835.584 274.824,843.948 279.52,852.011 C289.934,869.887 301.034,887.31 314.497,903.085 C324.042,914.268 334.555,924.337 347.14,932.247 C354.998,937.187 361.995,936.932 369.301,931.655 C376.196,926.675 382.975,921.559 389.145,915.693 C405.225,900.404 419.878,883.801 434.076,866.779 C435.598,864.954 436.607,862.897 437.614,860.786 C439.83,856.141 443.409,853.775 447.254,854.242 C451.44,854.751 454.304,857.85 455.241,863.255 C456.326,869.503 456.018,875.878 456.363,882.172 C457.127,896.122 458.03,910.07 458.802,924.02 C459.547,937.465 460.436,950.911 461.371,964.349 C462.191,976.127 462.95,987.915 463.651,999.703 C464.481,1013.65 465.513,1027.58 466.385,1041.52 C466.81,1048.31 467.71,1055.09 467.487,1061.93 C467.459,1062.77 466.884,1063.46 466.58,1064.23 C466.411,1067.49 466.99,1070.97 463.838,1073.34 C461.359,1075.2 458.609,1075.47 455.877,1074.29 C452.829,1072.97 451.689,1070.28 451.474,1067.08 C450.732,1056.02 449.945,1044.96 449.174,1033.9" fill="#6C431C"/>
      <path d="M1063.14,686.192 C1049.39,665.744 1034.7,646.02 1018.17,627.719 C1000.73,608.43 982.381,590.054 962.297,573.536 C942.261,557.06 918.527,548.781 893.384,543.995 C892.763,543.877 892.153,543.696 891.083,543.432 C896.038,534.662 898.208,525.389 898.129,515.615 C897.972,496.362 889.392,482.145 872.177,473.501 C868.593,471.701 868.095,470.187 869.106,466.37 C881.954,417.869 888.978,368.611 887.096,318.327 C886.116,292.165 882.596,266.321 875.795,240.987 C875.046,238.195 874.277,235.499 876.418,232.977 C912.154,253.151 949.003,271.343 983.957,292.897 C1010.67,309.372 1036.24,327.506 1060.46,347.524 C1074.81,359.386 1088.93,371.499 1101.72,385.026 C1123.88,408.455 1143.36,433.8 1155.29,464.146 C1160.9,478.422 1164.17,493.14 1164.46,508.706 C1164.8,527.037 1163.15,544.813 1156.41,561.983 C1149.18,580.401 1138.78,596.846 1126.52,612.316 C1112.29,630.28 1094.24,644.413 1078.69,661.027 C1071.83,668.359 1066.06,676.406 1063.14,686.192" fill="#E4E9EE"/>
    </g>
    <path d="M466.58,1064.23 C465.482,1047.34 464.49,1030.44 463.259,1013.55 C461.703,992.199 460.392,970.832 459.152,949.456 C458.21,933.22 457.062,916.996 456.19,900.752 C455.558,888.985 454.59,877.237 454.18,865.451 C454.067,862.193 453.639,858.741 450.442,856.625 C446.813,854.223 441.397,855.134 439.826,859.378 C436.748,867.692 430.15,873.211 424.846,879.688 C413.769,893.215 401.649,905.839 388.855,917.755 C381.569,924.542 373.901,930.932 364.982,935.641 C360.148,938.193 355.666,938.118 350.779,935.665 C336.199,928.347 324.707,917.276 314.363,905.102 C294.112,881.27 278.493,854.383 264.308,826.63 C263.792,825.621 263.416,824.54 262.79,823.055 C274.588,822.041 285.756,819.911 296.23,814.979 C305.696,810.522 313.972,804.435 320.896,796.647 C323.208,794.047 324.119,793.696 325.993,797.011 C334.586,812.211 343.423,827.274 352.158,842.394 C357.096,850.942 363.106,851.21 368.095,842.642 C379.812,822.522 391.189,802.204 402.81,782.028 C407.789,773.384 413.097,764.929 418.119,756.309 C419.49,753.956 421.019,753.421 423.446,754.5 C441.322,762.444 460.072,767.37 479.347,770.351 C486.384,771.44 493.474,772.373 500.574,772.775 C503.987,772.968 505.924,774.149 507.801,776.869 C516.632,789.662 526.614,801.427 539.891,809.885 C546.374,814.016 553.27,817.199 561.131,817.958 C570.566,818.87 578.294,814.759 585.74,809.918 C598.652,801.524 608.54,790.17 616.569,777.179 C618.372,774.261 620.466,773.018 623.792,772.923 C645.365,772.306 666.321,768.023 686.644,761.053 C691.6,759.353 693.559,762.267 696.423,764.216 C697.892,765.215 696.355,766.288 695.571,766.977 C681.089,779.693 666.556,792.351 652.079,805.072 C642.274,813.688 633.283,823.157 627.146,834.707 C616.462,854.818 625.817,868.472 646.846,871.837 C652.892,872.804 659.021,873.33 665.133,873.759 C667.816,873.948 668.502,875.05 668.419,877.499 C667.884,893.428 666.818,909.323 665.545,925.208 C665.067,931.164 665.004,937.14 664.563,943.111 C663.144,962.316 662.511,981.577 661.235,1000.794 C659.707,1023.81 657.358,1046.78 657.258,1069.88 C657.132,1064.68 654.169,1064.16 649.592,1064.17 C588.588,1064.33 527.584,1064.25 466.58,1064.23" fill="#797777"/>
    <path d="M65.444,678.972 C74.755,677.05 84.219,676.635 93.673,676.293 C105.791,675.856 117.936,676.892 130.043,675.168 C136.623,674.231 142.239,679.106 142.926,685.568 C143.56,691.542 138.92,696.968 132.375,697.884 C126.604,698.691 120.81,699.092 114.975,699.079 C101.015,699.047 87.035,698.619 73.163,700.806 C69.195,701.432 65.576,700.565 62.401,698.042 C56.96,690.373 57.859,684.736 65.444,678.972" fill="#F07064"/>
    <path d="M50.289,560.344 C50.215,550.199 57.377,545.127 65.782,547.92 C87.057,554.988 108.271,562.241 129.511,569.414 C133.288,570.689 137.111,571.838 140.85,573.216 C147.641,575.718 150.678,581.54 148.583,587.776 C146.482,594.032 140.488,597.12 133.767,594.872 C108.409,586.392 83.104,577.755 57.791,569.144 C52.791,567.443 50.439,563.754 50.289,560.344" fill="#F07064"/>
    <path d="M187.422,486.105 C187.149,490.224 185.237,493.81 181.15,495.771 C176.31,498.093 171.747,497.213 167.78,493.614 C160.151,486.692 152.608,479.674 144.935,472.801 C138.871,467.37 132.618,462.15 126.536,456.739 C120.802,451.638 120.097,445.162 124.561,440.068 C129.089,434.902 135.575,434.636 141.395,439.454 C155.864,451.431 169.625,464.209 183.482,476.877 C186.039,479.214 187.399,482.199 187.422,486.105" fill="#F07064"/>
    <path d="M821.45,451.875 C824.19,498.581 826.754,545.283 818.312,591.736 C812.872,621.675 802.973,649.838 785.406,675.008 C783.294,678.034 781.771,678.797 777.927,677.346 C751.056,667.2 727.65,674.205 707.051,692.866 C693.47,705.168 685.043,720.122 686.621,739.036 C687.056,744.25 685.734,745.941 680.937,747.445 C658.862,754.364 636.264,757.821 613.227,758.728 C585.271,759.829 557.303,760.79 529.331,759.705 C494.777,758.363 460.658,754.603 428.535,740.368 C378.99,718.412 344.458,681.634 322.653,632.59 C304.589,591.961 298.544,549.152 300.805,504.928 C301.774,485.984 302.01,467.003 302.579,448.039 C305.694,448.445 306.608,451.245 308.135,453.29 C322.011,471.872 337.944,488.277 358.101,500.112 C373.373,509.079 389.616,514.706 407.576,515.856 C434.407,517.573 459.02,511.252 482.076,497.883 C495.039,490.366 507.23,481.577 520.649,474.794 C533.034,468.534 546.179,464.771 559.881,463.905 C573.893,463.019 587.272,466.833 600.088,472.41 C611.742,477.48 622.42,484.289 633.047,491.178 C651.247,502.977 670.423,512.011 692.307,515.027 C725.878,519.655 755.53,511.123 782.185,490.651 C795.113,480.722 806.07,468.971 815.901,456.057 C817.299,454.222 818.183,451.368 821.45,451.875" fill="#FDF0DF"/>
    <path d="M483.295,24.877 C492.731,23.298 502.137,21.507 511.608,20.188 C528.545,17.83 545.613,16.036 562.676,16.18 C594.263,16.447 625.416,20.816 656.368,27.325 C694.182,35.277 728.101,52.261 761.566,70.533 C781.309,81.313 800.068,93.607 817.342,108.052 C837.097,124.573 854.023,143.384 863.232,167.938 C870.668,187.763 870.008,207.63 862.178,227.263 C857.33,239.417 850.334,250.274 842.127,260.419 C840.546,262.372 839.369,262.792 837.234,261.308 C808.952,241.651 777.621,228.465 745.015,218.002 C715.713,208.599 685.757,202.145 655.293,197.901 C632.437,194.717 609.508,192.804 586.441,191.727 C568.456,190.887 550.481,190.65 532.551,191.255 C501.729,192.297 471.034,194.981 440.607,200.605 C410.12,206.241 380.344,214.127 351.738,226.099 C332.844,234.006 314.622,243.239 298.334,255.879 C287.082,239.713 280.077,222.049 279.073,202.18 C277.637,173.736 288.737,149.982 306.419,128.706 C325.15,106.169 348.169,88.76 372.925,73.452 C396.327,58.981 420.871,46.735 446.049,35.707 C450.476,33.768 455.205,32.782 459.706,31.1 C461.605,30.685 463.446,30.039 465.35,29.644 C467.306,28.831 469.461,28.742 471.434,27.985 C474.033,27.301 476.631,26.617 479.23,25.932 C480.531,25.37 482.185,26.172 483.295,24.877" fill="#797777"/>
    <path d="M821.45,451.875 C815.601,457.085 811.564,463.83 806.391,469.642 C785.74,492.843 761.528,510.204 730.442,515.812 C706.957,520.048 683.986,517.136 661.765,508.197 C645.276,501.565 631.053,491.055 615.965,482.026 C600.362,472.687 583.759,465.959 565.512,465.168 C551.084,464.543 537.275,468.534 524.154,474.576 C509.605,481.275 496.79,490.93 482.96,498.857 C464.417,509.486 444.806,515.789 423.152,517.248 C392.572,519.309 366.344,509.359 342.718,491.375 C326.912,479.344 313.959,464.339 302.579,448.039 C303.925,408.839 306.658,369.769 313.069,330.499 C317.704,334.652 321.639,338.453 325.858,341.908 C341.253,354.516 358.808,359.696 378.769,358.387 C397.583,357.153 416.145,354.518 434.638,351.1 C437.023,350.659 438.961,350.994 441.132,352.449 C452.741,360.232 464.506,367.783 476.237,375.382 C480.712,378.282 484.213,378.069 486.317,374.883 C488.507,371.566 487.456,368.336 483.022,365.41 C474.289,359.645 465.503,353.963 455.526,347.455 C527.497,334.375 598.132,333.545 670.156,347.155 C660.462,353.335 652.249,359.493 643.191,364.35 C640.691,365.691 638.002,365.41 635.53,364.018 C633.795,363.042 632.152,361.903 630.457,360.855 C627.138,358.803 624.004,358.983 621.698,362.252 C619.486,365.387 620.565,368.219 623.297,370.603 C632.225,378.398 642.359,379.392 652.747,372.935 C663.203,366.436 673.459,359.609 683.687,352.753 C685.66,351.43 687.21,351.055 689.585,351.631 C701.535,354.533 713.319,358.238 725.536,359.915 C746.607,362.807 765.659,356.518 783.827,346.6 C793.194,341.486 801.735,335.154 810.502,327.621 C817.279,369.279 820.182,410.501 821.45,451.875" fill="#DBD8CC"/>
    <path d="M736.26,345.695 C724.561,345.209 713.998,342.266 703.408,339.509 C678.015,332.899 652.307,327.895 626.217,325.181 C614.014,323.911 601.731,323.278 589.445,322.734 C577.301,322.197 565.163,321.712 553.043,322.153 C527.684,323.075 502.394,324.77 477.249,328.663 C453.494,332.342 429.931,337.092 406.181,340.732 C392.03,342.901 377.709,344.015 363.428,342.846 C351.781,341.893 342.007,336.04 333.338,328.436 C317.742,314.758 307.399,297.415 298.716,278.868 C297.119,275.456 299.354,274.275 301.118,272.785 C310.815,264.595 321.501,257.828 332.676,251.903 C368.721,232.792 407.319,221.537 447.408,214.857 C468.039,211.42 488.749,209.035 509.64,207.771 C530.235,206.524 550.844,205.35 571.437,206.184 C593.134,207.063 614.826,208.199 636.457,210.719 C663.036,213.814 689.303,218.343 715.175,225.03 C754.519,235.198 792.079,249.695 826.377,271.928 C829.993,274.272 830.981,276.256 828.73,280.291 C810.402,313.147 783.79,335.352 746.933,344.575 C743.205,345.508 739.248,344.426 736.26,345.695" fill="#797777"/>
    <path d="M990.368,992.886 C993.102,966.065 984.366,943.534 964.964,924.998 C940.763,901.878 901.397,899.789 874.562,920.102 C870.045,923.522 866.175,927.615 861.686,931.353 C862.874,925.273 864.734,919.423 865.524,913.306 C867.055,901.468 866.289,889.745 864.724,878.02 C864.407,875.644 863.789,873.827 866.841,872.393 C888.339,862.29 895.455,841.575 889.51,819.217 C886.878,809.319 882.623,800.436 873.367,794.94 C864.108,789.441 854.629,789.747 845.257,794.459 C842.349,795.922 841.121,795.945 839.873,792.568 C837.57,786.334 834.895,780.213 831.974,774.241 C829.951,770.103 831.049,768.252 835.115,766.392 C864.5,752.949 899.535,768.203 911.398,799.656 C919.245,820.46 916.793,840.068 905.13,858.738 C903.157,861.896 901.034,865.036 903.008,868.902 C905.794,874.359 912.628,874.547 916.447,869.108 C922.436,860.579 926.907,851.179 928.954,841.001 C935.303,809.437 926.706,782.414 901.713,761.943 C881.512,745.397 858.156,742.657 833.526,750.898 C827.345,752.966 827.135,753.213 826.558,746.887 C824.787,727.474 817.151,710.694 804.417,696.098 C803.652,695.222 802.867,694.36 802.16,693.438 C800.257,690.96 795.707,689.965 795.939,686.868 C796.144,684.135 799.108,681.607 800.861,678.993 C802.319,676.819 803.786,674.652 805.683,671.84 C809.871,684.559 816.535,694.82 826.044,703.28 C849.8,724.419 895.585,724.28 915.787,693.79 C935.162,664.547 920.381,629.428 885.841,622.917 C869.866,619.906 858.401,623.989 851.347,635.517 C842.458,650.042 846.638,675.764 869.88,679.558 C872.035,679.91 874.169,680.031 876.309,679.464 C880.217,678.429 882.456,675.861 882.108,671.874 C881.757,667.846 879.525,665.035 875.082,664.868 C869.925,664.674 865.462,663.253 863.394,658.006 C861.248,652.559 861.674,647.285 865.027,642.333 C867.033,639.37 869.971,637.858 873.278,637.162 C889.71,633.7 909.549,649.534 909.255,666.216 C909.004,680.438 901.864,691.144 889.604,697.668 C867.381,709.495 833.216,702.848 821.268,670.567 C818.985,664.401 818.244,657.993 817.438,651.571 C817.187,649.575 817.623,647.668 818.351,645.732 C820.985,638.73 824.087,631.811 825.779,624.573 C827.634,616.636 832.615,611.387 838.404,606.604 C862.584,586.627 898.469,592.302 918.364,611.405 C925.699,618.446 931.153,626.662 934.98,636.047 C937.153,641.376 941.081,643.384 945.498,641.697 C949.648,640.113 951.007,635.591 948.93,630.279 C936.104,597.47 904.138,576.782 869.285,579.114 C858.439,579.84 847.947,582.422 838.504,588.259 C837.288,589.01 836.186,590.185 834.115,590.096 C835.119,582.486 836.151,574.95 837.081,567.401 C837.314,565.508 838.298,565.021 840.039,564.85 C851.961,563.675 863.753,562.063 874.963,557.306 C879.037,555.577 883.499,557.784 887.734,558.356 C892.722,559.03 897.775,559.822 902.414,562.055 C903.616,562.691 905.018,562.757 906.223,563.394 C916.409,566.692 925.014,572.774 932.956,579.599 C967.96,609.678 999.424,643.033 1025.33,681.376 C1034.95,695.609 1043.48,710.492 1050.68,726.108 C1051.35,727.566 1052.49,729.011 1051.43,730.776 C1039.64,727.252 1027.95,727.064 1016.22,731.342 C997.074,738.325 985.523,757.425 988.501,777.606 C990.107,788.493 993.108,798.745 1001.52,806.58 C1011.35,815.741 1028.45,815.875 1039.65,806.857 C1050.78,797.893 1053.61,784.059 1046.79,771.992 C1044.14,767.293 1039.99,765.645 1036.06,767.723 C1032.01,769.868 1030.5,774.321 1033.37,778.792 C1037.62,785.395 1034.49,792.782 1027.92,796.499 C1021.06,800.384 1013.47,798.715 1009.09,792.289 C1001.91,781.787 1001.32,765.646 1007.91,755.86 C1014.31,746.368 1024.1,743.245 1034.74,743.218 C1042.78,743.197 1050.42,745.779 1057.11,750.682 C1059.74,752.608 1061.61,755.037 1063.37,757.659 C1068.99,772.292 1072.2,787.479 1073.76,803.044 C1073.89,804.34 1073.44,805.702 1074.19,806.929 C1066,825.773 1052.01,837.803 1031.84,841.952 C1008.82,846.689 985.26,836.166 973.36,815.873 C958.866,791.155 960.112,766.869 976.277,743.274 C977.865,740.956 979.759,738.672 978.973,735.542 C978.181,732.392 976.285,730.11 973.035,729.463 C969.347,728.727 966.657,730.497 964.588,733.449 C952.089,751.28 945.918,770.73 949.25,792.674 C952.608,814.786 962.691,833.037 981.21,845.791 C1008.94,864.891 1045.78,861.627 1070.35,838.509 C1071.31,837.603 1072.36,836.792 1073.37,835.937 C1075.46,839.179 1074.64,842.726 1074.21,846.121 C1070.04,879.349 1057.23,909.317 1039.49,937.388 C1027.05,957.082 1011.9,974.527 994.982,990.475 C993.699,991.684 992.571,993.363 990.368,992.886" fill="#83A08C"/>
    <path d="M756.319,818.905 C756.977,836.961 755.581,857.229 755.108,877.514 C754.981,882.966 754.319,888.448 754.284,893.927 C754.265,896.809 752.985,898.433 750.283,898.639 C732.836,899.966 715.875,899.034 701.914,886.571 C696.197,881.467 692.558,874.849 690.544,867.541 C689.207,862.691 686.706,860.182 681.613,859.802 C670.864,859 660.109,858.152 649.407,856.887 C637.54,855.483 635.257,850.37 641.489,840.172 C649.878,826.445 662.078,816.348 674.092,806.11 C693.349,789.7 712.315,772.994 728.811,753.718 C732.437,749.48 736.249,745.791 742.325,747.417 C749.139,749.241 752.942,754.347 754.201,760.91 C756.019,770.38 756.164,780.055 756.293,789.684 C756.413,798.673 756.319,807.664 756.319,818.905" fill="#83A08C"/>
    <path d="M214.426,757.774 C215.493,742.512 220.731,725.016 237.131,712.549 C242.009,708.84 241.753,704.648 237.191,699.31 C223.675,683.498 213.942,665.727 209.881,645.167 C208.718,639.274 208.585,633.269 210.278,627.371 C212.658,619.078 218.739,614.869 226.657,613.07 C230.959,612.092 234.341,614.626 237.373,617.34 C243.312,622.654 247.354,629.358 250.71,636.452 C259.002,653.983 264.714,672.321 267.406,691.56 C268.178,697.076 270.532,699.113 276.539,699.07 C287.924,698.987 298.862,700.859 308.281,707.612 C323.808,718.744 326.651,734.844 324.921,752.462 C322.125,780.953 297.925,806.965 262.788,807.498 C245.701,807.758 229.528,803.673 220.127,786.926 C215.787,779.195 214.227,770.759 214.426,757.774" fill="#FEFEFE"/>
    <path d="M919.296,1038.07 C911.617,1040.19 903.722,1041.28 895.836,1041.73 C882.057,1042.53 868.229,1042.44 854.442,1043.12 C831.985,1044.23 809.517,1043.64 787.121,1042.61 C750.815,1040.93 714.461,1039.02 678.94,1030.1 C674.855,1029.07 673.865,1027.25 674.56,1023.5 C675.099,1020.59 675.266,1017.61 675.66,1014.11 C703.123,1032.45 731.904,1035.66 760.985,1019.87 C790.712,1003.73 801.197,977.215 797.539,944.038 C815.477,950.831 833.177,959.305 851.635,946.24 C852.669,947.819 851.358,948.838 850.899,949.915 C833.131,991.58 861.546,1029.22 892.23,1037.03 C901.344,1039.34 910.313,1038.74 919.342,1036.91 C919.848,1037.32 919.833,1037.7 919.296,1038.07" fill="#83A08C"/>
    <path d="M935.275,1029.99 C937.741,1026.42 941.724,1024.4 944.329,1020.87 C956.989,1003.72 956.156,981.411 941.717,962.599 C934.325,952.968 924.452,948.444 912.413,951.141 C900.059,953.909 891.7,961.706 888.771,974.204 C886.657,983.222 889.166,991.375 895.866,997.975 C899.343,1001.4 903.35,1001.64 906.598,998.835 C909.665,996.192 909.857,991.828 907.07,988.106 C901.609,980.814 902.053,974.837 908.464,969.313 C914.477,964.132 922.536,964.459 928.2,970.113 C936.602,978.501 940.713,994.993 936.251,1004.75 C930.624,1017.05 920.305,1021.96 907.162,1023.2 C883.83,1025.4 863.37,1000.903 861.002,982.312 C857.26,952.951 882.205,924.628 909.958,921.675 C945.647,917.878 968.774,944.378 974.123,969.36 C977.164,983.564 976.646,997.785 969.188,1010.96 C959.887,1018.78 949.4,1024.69 938.547,1030.01 C937.505,1030.52 936.361,1030.85 935.275,1029.99" fill="#83A08C"/>
    <path d="M830.483,810.194 C837.15,827.785 842.472,844.292 846.307,861.27 C849.459,875.223 851.776,889.298 851.243,903.652 C850.941,911.788 849.785,919.852 846.16,927.322 C841.541,936.84 835.866,939.53 825.543,937.507 C812.244,934.901 800.634,928.359 789.008,921.929 C783.203,918.719 777.884,914.639 772.16,911.267 C768.935,909.366 767.784,907.303 768.204,903.363 C770.757,879.392 771.388,855.319 771.335,831.224 C771.334,830.762 771.499,830.299 771.706,829.201 C782.26,837.063 793.223,843.596 806.637,838.584 C819.166,833.902 826.266,823.886 830.483,810.194" fill="#797777"/>
    <path d="M678.658,970.36 C694.229,990.393 722.013,991.14 736.982,984.047 C749.177,978.268 754.899,967.302 753.282,953.282 C751.84,940.784 742.609,930.96 730.012,928.36 C725.395,927.407 721.06,928.461 716.82,929.965 C712.033,931.661 710.074,935.374 711.359,939.661 C712.657,943.987 716.19,945.656 721.329,944.368 C728.712,942.519 732.341,943.724 735.963,949.229 C739.482,954.576 739.275,961.603 735.622,966.547 C734.476,968.098 733.058,969.199 731.383,969.922 C719.897,974.879 708.455,974.404 697.98,967.778 C687.288,961.015 684.994,950.059 686.54,938.36 C687.674,929.781 691.479,922.116 697.819,916.028 C702.985,911.067 708.279,907.512 716.316,910.917 C725.513,914.814 735.569,914.258 745.392,913.902 C748.597,913.786 751.086,914.671 753.634,916.589 C758.682,920.388 763.653,924.557 769.289,927.244 C778.2,931.493 780.839,939.162 782.242,947.674 C787.845,981.662 764.025,1011.25 729.582,1014.13 C710.485,1015.73 694.318,1009.86 679.929,997.808 C677.463,995.742 676.425,993.729 676.93,990.161 C677.833,983.782 677.129,977.215 678.658,970.36" fill="#83A08C"/>
    <path d="M863.99,256.878 C867.238,269.379 868.889,281.534 870.198,293.707 C872.174,312.077 872.938,330.535 872.166,349.002 C870.56,387.475 864.537,425.282 854.643,462.493 C853.685,466.097 852.321,467.789 848.471,466.33 C847.424,465.933 846.172,466.039 845.011,465.985 C837.398,465.627 837.56,465.625 837.17,457.723 C835.275,419.402 833.428,381.073 828.168,343.018 C826.964,334.304 825.528,325.617 823.946,316.963 C823.594,315.041 824.018,313.889 825.175,312.529 C833.196,303.101 840.082,292.946 844.609,281.343 C845.688,278.579 848.02,276.882 849.769,274.69 C854.32,268.987 858.874,263.285 863.99,256.878" fill="#B89B8C"/>
    <path d="M718.388,740.844 C721.231,734.394 724.618,728.816 729.651,724.293 C733.16,721.139 733.751,717.19 731.211,714.194 C728.193,710.632 724.586,710.951 720.933,713.161 C712.801,718.081 708.231,725.629 705.42,734.434 C704.317,737.89 703.294,741.373 702.125,745.202 C699.405,736.671 699.841,729.287 703.391,720.956 C712.047,700.646 736.75,685.321 758.747,686.98 C773.502,688.092 785.254,695.358 794.612,706.427 C807.221,721.34 814.228,738.432 812.387,758.274 C810.809,775.282 794.589,787.022 777.675,783.859 C773.325,783.046 770.582,781.121 770.755,775.926 C771.12,764.989 769.505,754.089 764.123,744.615 C760.637,738.478 753.779,735.039 746.847,732.987 C738.048,730.382 730.089,732.517 722.955,738.092 C721.792,739.001 720.675,739.966 719.52,740.884 C719.422,740.962 719.196,740.88 718.388,740.844" fill="#FEFEFE"/>
    <path d="M460.194,31.782 C407.498,52.774 357.621,78.456 316.861,118.996 C303.177,132.605 292.093,148.173 285.595,166.538 C275.085,196.245 280.122,224.109 296.169,250.547 C297.157,252.175 298.957,253.563 298.334,255.88 C297.78,256.237 297.204,256.567 296.674,256.959 C294.026,258.911 290.562,263.013 288.931,262.38 C285.939,261.218 283.853,257.396 281.701,254.456 C269.502,237.787 260.84,219.775 260.181,198.595 C259.456,175.244 268.503,155.508 282.341,137.528 C296.923,118.583 315.071,103.492 334.776,90.248 C368.157,67.811 403.751,49.603 441.474,35.634 C446.902,33.624 452.647,32.471 458.246,30.921 C459.211,30.493 460.186,30.043 460.194,31.782" fill="#FEFEFE"/>
    <path d="M990.368,992.886 C1029.16,957.525 1057.38,915.626 1069.76,864.025 C1071.96,854.831 1073.82,845.511 1073.37,835.937 C1077.33,831.028 1081.35,826.192 1084.35,820.571 C1087.18,815.238 1089.12,809.558 1091.29,803.848 C1093.39,810.608 1093.34,817.495 1093.42,824.342 C1093.81,858.72 1083.32,890.11 1066.68,919.68 C1047.97,952.936 1023,980.712 992.264,1003.3 C991.086,1004.17 989.834,1004.93 988.061,1006.12 C988.904,1001.28 989.636,997.085 990.368,992.886" fill="#FEFEFE"/>
    <path d="M286.526,288.889 C290.754,296.417 294.95,303.964 299.235,311.461 C300.194,313.138 300.642,314.796 300.266,316.691 C295.476,340.83 292.946,365.271 290.643,389.735 C289.694,399.821 289.058,409.946 288.579,420.067 C287.982,432.689 287.744,445.328 287.237,457.955 C287.125,460.748 288.065,464.832 284.754,465.652 C280.637,466.672 280.798,462.01 279.716,459.552 C277.444,454.395 275.598,449.05 273.577,443.782 C274.371,442.033 272.914,440.61 272.881,438.975 C272.396,436.687 272.411,434.299 271.438,432.111 C268.242,411.986 267.34,391.833 268.64,371.436 C270.273,345.836 274.811,320.885 282.302,296.418 C283.147,293.657 283.282,290.361 286.526,288.889" fill="#B89B8C"/>
    <path d="M1051.43,730.776 C1043.31,711.535 1032.46,693.836 1020.6,676.744 C995.396,640.424 965.131,608.717 931.657,579.996 C923.795,573.25 914.882,568.033 905.474,563.687 C905.253,562.687 905.641,562.393 906.578,562.736 C925.778,567.53 942.883,576.271 957.785,589.395 C996.869,623.815 1031.5,661.994 1057.84,707.223 C1065.35,720.112 1071.99,733.424 1076.94,747.788 C1069.53,740.351 1061.31,734.295 1051.43,730.776" fill="#FEFEFE"/>
    <path d="M838.273,522.572 C838.273,510.12 838.504,497.66 838.141,485.218 C838.022,481.133 839.232,480.519 842.834,480.882 C854.105,482.02 864.837,484.563 873.464,492.442 C883.583,501.682 884.561,513.493 881.962,525.958 C879.644,537.072 872.069,543.087 861.523,546.127 C854.772,548.073 847.83,548.64 840.951,549.714 C837.835,550.201 838.361,548.3 838.369,546.462 C838.403,538.498 838.383,530.534 838.383,522.571 C838.346,522.571 838.31,522.572 838.273,522.572" fill="#FDF6E9"/>
    <path d="M286.212,512.407 C285.367,523.371 285.009,534.346 286.264,545.269 C286.638,548.525 285.975,549.639 282.384,549.118 C274.313,547.948 266.282,546.848 258.941,542.96 C253.081,539.857 249.177,535.204 247.108,528.864 C239.604,505.873 251.398,487.087 276.543,482.11 C286.319,480.175 286.289,480.175 286.222,489.998 C286.172,497.467 286.212,504.937 286.212,512.407" fill="#FDF6E9"/>
    <path d="M286.526,288.889 C279.616,307.846 275.182,327.419 272.483,347.368 C270.141,364.678 268.808,382.095 269.757,399.573 C270.36,410.678 271.538,421.751 272.458,432.838 C272.685,434.027 273.811,435.491 271.519,435.912 C265.001,414.849 261.534,393.258 260.321,371.275 C258.484,337.964 262.194,305.277 271.34,273.2 C271.704,271.923 272.042,270.639 272.43,269.369 C272.509,269.109 272.756,268.901 273.05,268.498 C279.137,274.296 284.366,280.561 286.526,288.889" fill="#FEFEFE"/>
    <path d="M600.582,774.123 C591.24,786.885 581.072,797.542 566.339,802.713 C562.75,803.973 559.123,802.636 555.698,801.174 C543.039,795.769 534.063,786.074 524.907,774.816 C550.415,775.076 575.053,775.459 600.582,774.123" fill="#FDF4E8"/>
    <path d="M817.216,783.081 C817.765,793.764 818.387,803.816 813.253,812.843 C804.826,827.659 795.806,828.06 784.921,819.987 C782.26,818.014 779.877,815.67 777.24,813.662 C771.584,809.353 770.078,803.761 771.755,797.242 C788.917,799.954 803.998,796.074 817.216,783.081" fill="#FDF4E8"/>
    <path d="M876.428,832.936 C876.407,843.252 872.737,850.801 864.842,856.265 C862.295,858.028 861.037,858.251 860.198,854.625 C857.015,840.863 853,827.328 847.944,814.131 C846.969,811.586 848.09,810.427 849.81,809.19 C857.614,803.577 866.472,805.563 871.419,814.186 C874.883,820.223 876.297,826.843 876.428,832.936" fill="#83A08B"/>
    <path d="M1074.19,806.929 C1071.26,802.092 1072.15,796.477 1071.05,791.264 C1068.84,780.782 1066.47,770.353 1063.19,760.147 C1062.92,759.326 1061.94,758.386 1063.37,757.659 C1070.87,763.669 1073.99,772.13 1076.22,781.006 C1078.44,789.834 1077,798.455 1074.19,806.929" fill="#FDFDFD"/>
    <path d="M935.275,1029.99 C945.87,1025.97 955.009,1019.4 964.464,1013.38 C965.947,1012.43 967.114,1010.78 969.188,1010.96 C969.27,1017.38 965.634,1020.56 960.039,1023.14 C948.44,1028.5 936.793,1033.59 924.372,1036.72 C923.741,1036.49 923.666,1036.14 924.15,1035.67 C927.858,1033.78 931.567,1031.89 935.275,1029.99" fill="#FDFDFC"/>
    <path d="M683.55,888.181 C684.478,889.36 684.957,890.003 685.47,890.616 C688.004,893.642 690.547,896.66 693.087,899.681 C689.597,903.34 686.108,906.998 682.618,910.657 C683.054,903.086 681.524,895.96 683.55,888.181" fill="#829F8A"/>
    <path d="M460.194,31.782 C459.545,31.495 458.895,31.208 458.246,30.921 C460.491,29.789 462.822,29.021 465.385,29.241 L465.318,29.732 C464.064,31.55 461.967,31.26 460.194,31.782" fill="#D8D4D0"/>
    <path d="M271.519,435.912 C272.609,435.125 272.207,433.882 272.457,432.838 C273.848,435.061 273.398,437.543 273.456,439.953 C273.155,440.261 272.863,440.237 272.581,439.926 C272.227,438.588 271.873,437.25 271.519,435.912" fill="#EEEAE8"/>
    <path d="M465.318,29.732 L465.385,29.241 C467.244,28.067 469.264,27.665 471.434,27.985 C469.657,29.485 467.597,29.992 465.318,29.732" fill="#E4E2E1"/>
    <path d="M924.15,1035.67 C924.224,1036.02 924.298,1036.37 924.372,1036.72 C922.833,1037.75 921.103,1038.05 919.297,1038.07 C919.311,1037.68 919.326,1037.3 919.342,1036.91 C920.945,1036.5 922.547,1036.09 924.15,1035.67" fill="#C1C3B8"/>
    <path d="M272.581,439.926 C272.873,439.915 273.164,439.924 273.456,439.953 C274.756,441.19 274.815,442.466 273.577,443.782 C273.245,442.497 272.913,441.212 272.581,439.926" fill="#E2D9D4"/>
    <path d="M483.295,24.877 C482.37,26.881 480.752,26.219 479.231,25.933 C480.343,24.648 481.898,25.065 483.295,24.877" fill="#A69D96"/>
    <path d="M906.578,562.736 C906.21,563.053 905.842,563.37 905.474,563.687 C904.325,563.385 903.085,563.254 902.414,562.055 C903.891,561.736 905.355,561.499 906.578,562.736" fill="#DFE1DC"/>
    <path d="M571.721,707.812 C554.869,707.343 538.522,706.136 522.585,701.22 C501.421,694.692 485.3,681.896 473.654,663.234 C471.542,659.849 469.403,656.468 467.523,652.953 C464.398,647.112 461.294,641.717 453.957,639.859 C449.589,638.753 448.26,634.362 449.818,630.606 C451.32,626.986 455.289,625.405 459.5,627.145 C473.236,632.82 487.822,634.411 502.366,635.761 C532.07,638.517 561.859,639.318 591.622,636.861 C616.237,634.828 640.448,630.774 662.91,619.613 C668.601,616.786 672.792,619.417 674.142,626.405 C679.172,652.446 667.629,677.958 644.561,691.589 C627.836,701.472 609.339,705.199 590.296,706.831 C584.004,707.37 577.678,707.508 571.721,707.812" fill="#6C431C"/>
    <path d="M677.314,600.843 C676.183,600.693 675.055,600.461 673.92,600.408 C670.663,600.255 668.385,598.887 668.389,595.388 C668.393,591.861 670.808,590.394 673.976,590.337 C682.184,590.191 689.354,592.633 694.544,599.379 C700.185,606.713 700.798,615.28 700.232,624.037 C700.042,626.985 697.858,628.471 695.078,628.33 C692.302,628.188 690.571,626.517 690.328,623.538 C690.035,619.935 691.11,616.216 689.421,612.732 C686.658,607.473 683.187,602.935 677.314,600.843" fill="#6C431E"/>
    <path d="M565.106,480.98 C568.307,480.896 570.637,481.468 571.59,483.047 C574.601,488.036 577.823,493.308 577.187,499.335 C576.525,505.618 568.499,508.116 563.666,503.738 C558.931,499.448 557.013,493.842 558.053,487.527 C558.774,483.149 561.959,481.254 565.106,480.98" fill="#6C431C"/>
    <path d="M677.314,600.843 C684.337,601.597 688.104,605.296 689.42,612.732 C689.334,613.521 689.248,614.311 689.097,615.697 C684.928,610.441 681.121,605.642 677.314,600.843" fill="#FAF4E7"/>
    <path d="M483.936,453.636 C483.868,457.311 483.022,463.033 480.023,468.197 C474.353,477.963 461.399,479.405 453.778,471.186 C443.24,459.819 445.952,435.232 458.64,427.105 C467.176,421.638 474.525,423.44 479.557,432.236 C482.371,437.153 483.943,444.044 483.936,453.636" fill="#6C431C"/>
    <path d="M684.455,451.072 C684.491,456.446 683.646,461.633 681.388,466.566 C678.367,473.165 673.139,476.415 666.029,476.457 C659.44,476.496 654.491,473.286 651.641,467.449 C646.269,456.45 646.528,445.353 652.044,434.446 C653.979,430.619 657.231,428.006 660.974,426.038 C668.378,422.145 674.925,423.917 679.372,431.077 C683.167,437.187 684.418,443.988 684.455,451.072" fill="#6C431C"/>
    <path d="M269.672,768.254 C269.957,786.102 257.355,798.669 239.103,798.74 C234.82,798.757 231.578,795.978 231.233,791.994 C230.862,787.716 233.161,784.507 237.5,783.858 C241.819,783.213 246.017,782.343 249.763,779.999 C255.631,776.327 256.268,771.966 251.701,766.855 C250.815,765.864 249.779,765.009 248.862,764.044 C246.749,761.816 246.001,759.289 247.028,756.266 C248.063,753.218 250.332,751.779 253.273,751.196 C264.436,748.983 266.701,742.997 259.903,733.635 C257.891,730.865 255.285,729.025 252.113,727.676 C247.602,725.757 245.938,721.522 247.685,717.445 C249.256,713.782 253.357,712.261 257.828,713.786 C264.216,715.965 269.11,720.106 272.741,725.702 C274.005,727.649 274.771,727.802 276.278,725.948 C277.948,723.893 279.867,722.01 281.85,720.246 C285.836,716.698 290.359,716.629 293.355,719.905 C296.445,723.284 296.054,727.713 292.065,731.322 C287.436,735.51 283.619,740.256 281.023,745.944 C276.783,755.236 279.747,759.916 290,760.063 C293.329,760.11 296.617,759.807 299.918,759.154 C304.637,758.221 308.427,760.876 309.217,765.239 C309.954,769.307 307.423,773.042 302.847,773.856 C291.074,775.952 280.468,776.604 269.672,768.254" fill="#6C431C"/>
    <path d="M480.776,647.501 C488.999,648.376 496.525,649.224 504.062,649.967 C521.795,651.714 539.583,652.287 557.388,652.011 C561.098,651.954 562.176,653.019 562.314,656.73 C562.723,667.697 563.589,678.648 564.285,689.604 C564.414,691.64 564.801,693.613 561.535,693.423 C542.095,692.293 523.191,689.358 506.548,678.143 C495.209,670.502 487.62,659.792 480.776,647.501" fill="#FEFEFE"/>
    <path d="M587.537,692.978 C578.674,693.396 578.663,693.397 578.163,685.942 C577.496,675.999 576.897,666.05 576.161,656.112 C575.949,653.252 576.354,651.768 579.882,651.68 C589.352,651.443 598.811,650.677 608.174,649.144 C610.87,648.703 611.966,649.291 612.391,652.216 C613.942,662.9 615.59,673.582 617.677,684.171 C618.337,687.517 617.006,688.191 614.496,688.79 C605.097,691.031 595.584,692.483 587.537,692.978" fill="#FEFEFE"/>
    <path d="M660.859,636.316 C662.436,655.551 650.238,674.747 631.569,682.128 C629.69,670.83 627.844,659.659 625.961,648.496 C625.728,647.118 626.012,646.274 627.515,645.98 C638.878,643.756 649.93,640.398 660.859,636.316" fill="#FEFEFE"/>
  </g>
</svg>
